<?xml version="1.0" standalone="no"?>
<!DOCTYPE svg PUBLIC "-//W3C//DTD SVG 1.1//EN" "http://www.w3.org/Graphics/SVG/1.1/DTD/svg11.dtd" >
<svg xmlns="http://www.w3.org/2000/svg">
<metadata></metadata>
<defs>
<font id="core_sans_cr25_extralight" horiz-adv-x="1296" >
<font-face units-per-em="2048" ascent="1638" descent="-410" />
<missing-glyph horiz-adv-x="595" />
<glyph unicode="&#xfb01;" horiz-adv-x="1267" d="M355 979v-948q0 -31 -30 -31h-31q-31 0 -31 31v948h-183q-31 0 -31 31v20q0 31 31 31h183v75q0 174 86.5 266.5t258.5 92.5q37 0 79 -5q29 -3 29 -32v-19q0 -32 -33 -29q-34 3 -70 3q-258 0 -258 -279v-73h666q31 0 31 -31v-999q0 -31 -31 -31h-31q-31 0 -31 31v948h-604 zM930 1372q0 33 22 55t54 22q33 0 54.5 -22t21.5 -55q0 -32 -21.5 -54t-54.5 -22q-32 0 -54 22t-22 54z" />
<glyph unicode="&#xfb02;" horiz-adv-x="1266" d="M700 1458v-19q0 -32 -32 -29q-30 3 -63 3q-250 0 -250 -279v-73h315q30 0 30 -31v-20q0 -31 -30 -31h-315v-948q0 -31 -30 -31h-31q-31 0 -31 31v948h-183q-31 0 -31 31v20q0 31 31 31h183v75q0 174 85 266.5t252 92.5q34 0 72 -4q28 -3 28 -33zM959 1464q0 31 31 31h31 q31 0 31 -31v-1433q0 -31 -31 -31h-31q-31 0 -31 31v1433z" />
<glyph unicode="&#xfb03;" horiz-adv-x="1964" d="M263 1061v75q0 174 87 266.5t260 92.5q60 0 120 -13q30 -6 23 -37l-4 -21q-6 -28 -38 -22q-52 11 -101 11q-255 0 -255 -279v-73h604v75q0 174 87 266.5t258 92.5q41 0 79 -5q29 -5 29 -32v-19q0 -32 -33 -29q-34 3 -70 3q-257 0 -257 -279v-73h665q31 0 31 -31v-999 q0 -31 -31 -31h-30q-31 0 -31 31v948h-604v-948q0 -31 -31 -31h-31q-31 0 -31 31v948h-604v-948q0 -31 -30 -31h-31q-31 0 -31 31v948h-183q-31 0 -31 31v20q0 31 31 31h183zM1626 1372q0 33 22 55t54 22q33 0 55 -22t22 -55q0 -32 -22 -54t-55 -22q-32 0 -54 22t-22 54z " />
<glyph unicode="&#xfb04;" horiz-adv-x="1963" d="M1397 1458v-19q0 -32 -33 -29q-30 3 -62 3q-250 0 -250 -279v-73h314q31 0 31 -31v-20q0 -31 -31 -31h-314v-948q0 -31 -31 -31h-31q-31 0 -31 31v948h-604v-948q0 -31 -30 -31h-31q-31 0 -31 31v948h-183q-31 0 -31 31v20q0 31 31 31h183v75q0 174 87 266.5t260 92.5 q60 0 120 -13q30 -6 23 -37l-4 -21q-6 -28 -38 -22q-52 11 -101 11q-255 0 -255 -279v-73h604v75q0 174 85 266.5t252 92.5q28 0 72 -4q29 -3 29 -33zM1656 1464q0 31 31 31h30q31 0 31 -31v-1433q0 -31 -31 -31h-30q-31 0 -31 31v1433z" />
<glyph horiz-adv-x="0" />
<glyph horiz-adv-x="0" />
<glyph horiz-adv-x="682" />
<glyph unicode="&#x9;" horiz-adv-x="0" />
<glyph unicode=" "  horiz-adv-x="595" />
<glyph unicode="&#x09;" horiz-adv-x="595" />
<glyph unicode="&#xa0;" horiz-adv-x="595" />
<glyph unicode="!" horiz-adv-x="620" d="M263 1403q0 31 31 31h33q30 0 30 -31v-989q0 -31 -30 -31h-33q-31 0 -31 31v989zM232 53q0 33 22 55.5t56 22.5t56 -22.5t22 -55.5t-22 -55.5t-56 -22.5t-56 22.5t-22 55.5z" />
<glyph unicode="&#x22;" horiz-adv-x="949" d="M268 1403q0 31 31 31h31q30 0 30 -31v-518q0 -31 -30 -31h-31q-31 0 -31 31v518zM589 1403q0 31 31 31h30q31 0 31 -31v-518q0 -31 -31 -31h-30q-31 0 -31 31v518z" />
<glyph unicode="#" horiz-adv-x="1369" d="M838 398h-417l-63 -370q-4 -28 -33 -28h-32q-15 0 -23 9t-6 24l63 365h-208q-31 0 -31 31v18q0 31 31 31h222l82 477h-228q-31 0 -31 31v19q0 30 31 30h241l64 371q4 28 34 28h31q15 0 22.5 -9t5.5 -24l-63 -366h417l64 371q4 28 33 28h32q15 0 22.5 -9t5.5 -24l-63 -366 h209q31 0 31 -30v-19q0 -31 -31 -31h-222l-82 -477h229q30 0 30 -31v-18q0 -31 -30 -31h-243l-63 -370q-4 -28 -33 -28h-32q-15 0 -23 9t-6 24zM435 478h417l82 477h-417z" />
<glyph unicode="$" horiz-adv-x="1179" d="M160 247q22 23 44 -1q70 -79 165.5 -130t199.5 -57v644q-203 45 -312.5 145t-109.5 242q0 159 117 262t305 106v154q0 30 31 30h18q31 0 31 -30v-158q185 -22 333 -158q22 -21 3 -43l-18 -22q-19 -24 -44 -3q-131 121 -274 141v-595q431 -102 431 -412q0 -158 -119 -265 t-312 -120v-155q0 -31 -31 -31h-18q-31 0 -31 31v154q-127 6 -240 62t-191 144q-19 22 1 43zM985 359q0 117 -84.5 199.5t-251.5 126.5v-624q149 14 242.5 95.5t93.5 202.5zM243 1097q0 -109 85 -185.5t241 -118.5v581q-147 -4 -236.5 -82t-89.5 -195z" />
<glyph unicode="%" horiz-adv-x="1817" d="M1218 1411q11 23 35 23h33q18 0 24.5 -11t-1.5 -26l-709 -1374q-12 -23 -36 -23h-33q-18 0 -24 11t2 26zM106 1099q0 140 101 244.5t254 104.5t253.5 -104.5t100.5 -244.5t-100.5 -244.5t-253.5 -104.5t-254 104.5t-101 244.5zM198 1099q0 -106 74 -188t189 -82t189 82 t74 188t-74 187.5t-189 81.5t-189 -81.5t-74 -187.5zM1002 335q0 140 101 244.5t254 104.5t253.5 -104.5t100.5 -244.5t-100.5 -244.5t-253.5 -104.5t-254 104.5t-101 244.5zM1094 335q0 -106 74 -187.5t189 -81.5t189 81.5t74 187.5t-74 187.5t-189 81.5t-189 -81.5 t-74 -187.5z" />
<glyph unicode="&#x26;" horiz-adv-x="1469" d="M927 1190q-28 -12 -40 15q-43 83 -117.5 128.5t-168.5 45.5q-112 0 -190 -72.5t-78 -173.5q0 -73 48 -137.5t166 -171.5l514 -466q88 149 116 338q5 32 34 27l31 -5q31 -5 26 -34q-28 -215 -138 -389l284 -257q16 -14 11.5 -26t-25.5 -12h-49q-23 0 -38 14l-236 211 q-92 -118 -214.5 -184t-264.5 -66q-192 0 -323 116t-131 281q0 127 80.5 235t222.5 188q-109 102 -157 175.5t-48 161.5q0 136 105 231t254 95q126 0 220.5 -57.5t146.5 -159.5q14 -28 -16 -41zM598 57q119 0 225.5 60t187.5 169l-498 449q-131 -71 -203.5 -163.5 t-72.5 -195.5q0 -130 105 -224.5t256 -94.5z" />
<glyph unicode="'" horiz-adv-x="628" d="M268 1403q0 31 31 31h31q30 0 30 -31v-518q0 -31 -30 -31h-31q-31 0 -31 31v518z" />
<glyph unicode="(" horiz-adv-x="833" d="M267 625q0 267 97.5 513.5t265.5 417.5q21 22 43 3l17 -15q24 -21 2 -43q-156 -164 -243.5 -395.5t-87.5 -480.5q0 -250 87.5 -481.5t243.5 -395.5q22 -22 -2 -43l-17 -14q-22 -19 -41 0q-169 170 -267 418t-98 516z" />
<glyph unicode=")" horiz-adv-x="833" d="M566 625q0 -268 -97 -515t-265 -417q-20 -22 -43 -2l-18 14q-24 21 -2 43q156 164 243.5 395.5t87.5 481.5q0 249 -87.5 480.5t-243.5 395.5q-22 22 2 43l18 15q22 19 41 0q169 -170 266.5 -418t97.5 -516z" />
<glyph unicode="*" horiz-adv-x="1112" d="M517 749l-2 353q0 31 31 31h20q31 0 31 -31l-2 -353l306 179q26 15 42 -12l10 -18q15 -28 -11 -42l-309 -176l309 -176q26 -14 11 -42l-10 -19q-14 -27 -42 -11l-306 179l2 -353q0 -31 -31 -31h-20q-31 0 -31 31l2 353l-306 -179q-26 -16 -42 11l-10 19q-15 28 11 42 l309 176l-309 176q-26 14 -11 42l10 18q15 28 42 12z" />
<glyph unicode="+" horiz-adv-x="1150" d="M529 639h-378q-31 0 -31 31v19q0 31 31 31h378v394q0 31 31 31h31q31 0 31 -31v-394h378q31 0 31 -31v-19q0 -31 -31 -31h-378v-393q0 -31 -31 -31h-31q-31 0 -31 31v393z" />
<glyph unicode="," horiz-adv-x="595" d="M217 56q0 34 23.5 57.5t57.5 23.5t57.5 -23.5t23.5 -57.5q0 -16 -7 -34l-105 -239q-11 -24 -36 -24h-7q-17 0 -23.5 9.5t0.5 26.5l80 182q-29 6 -46.5 27.5t-17.5 51.5z" />
<glyph unicode="-" horiz-adv-x="806" d="M148 637q-30 0 -30 31v24q0 31 30 31h510q31 0 31 -31v-24q0 -31 -31 -31h-510z" />
<glyph unicode="." horiz-adv-x="595" d="M217 56q0 34 23.5 57.5t57.5 23.5t57.5 -23.5t23.5 -57.5t-23.5 -57.5t-57.5 -23.5t-57.5 23.5t-23.5 57.5z" />
<glyph unicode="/" horiz-adv-x="916" d="M168 -262q-9 -25 -35 -25h-37q-17 0 -23.5 9.5t-0.5 26.5l677 1762q9 25 34 25h37q17 0 24 -10t1 -26z" />
<glyph unicode="0" horiz-adv-x="1191" d="M127 717q0 158 29.5 292t86.5 234.5t147.5 157.5t205.5 57t205.5 -57t147.5 -157.5t86.5 -234.5t29.5 -292t-29.5 -292t-86.5 -235t-147.5 -158t-205.5 -57t-205.5 57t-147.5 158t-86.5 235t-29.5 292zM220 717q0 -189 39.5 -334t126 -234t210.5 -89t210.5 89t126 234 t39.5 334q0 140 -23 257.5t-68 207.5t-118 140.5t-167 50.5t-167 -50.5t-118 -140.5t-68 -207.5t-23 -257.5z" />
<glyph unicode="1" horiz-adv-x="1191" d="M699 1434q31 0 31 -31v-1372q0 -31 -31 -31h-31q-31 0 -31 31v1307l-307 -176q-27 -16 -42 13l-10 18q-15 28 12 42l335 188q19 11 38 11h36z" />
<glyph unicode="2" horiz-adv-x="1191" d="M314 82h663q31 0 31 -31v-20q0 -31 -31 -31h-756q-31 0 -31 31v26q0 20 15 38l562 634q162 182 162 355q0 123 -93.5 207.5t-232.5 84.5q-119 0 -207 -62.5t-121 -168.5q-9 -32 -38 -21l-25 11q-28 12 -21 37q35 126 147.5 206t264.5 80q180 0 299.5 -107t119.5 -267 q0 -199 -181 -405z" />
<glyph unicode="3" horiz-adv-x="1191" d="M923 424q0 154 -114 260.5t-278 106.5q-43 0 -93 -12q-26 -6 -41 14l-6 8q-18 23 1 43l450 507h-619q-30 0 -30 30v22q0 31 30 31h701q30 0 30 -31v-31q0 -21 -14 -38l-431 -481q11 1 35 1q202 0 337 -124t135 -312q0 -89 -36 -170t-98.5 -141.5t-153 -96t-194.5 -35.5 q-129 0 -231 52.5t-169 148.5q-17 23 5 43l19 17q23 21 43 -7q57 -80 142 -126t188 -46q165 0 278.5 106t113.5 261z" />
<glyph unicode="4" horiz-adv-x="1191" d="M84 395q0 20 11 38l665 981q13 20 37 20h39q30 0 30 -31v-986h169q31 0 31 -31v-24q0 -30 -31 -30h-169v-301q0 -31 -30 -31h-32q-31 0 -31 31v301h-658q-31 0 -31 30v33zM773 416v863l-580 -863h580z" />
<glyph unicode="5" horiz-adv-x="1191" d="M557 -25q-120 0 -223 52.5t-172 142.5q-19 23 4 43l18 16q24 22 43 -5q61 -78 145.5 -122.5t182.5 -44.5q163 0 272.5 106t109.5 265t-109.5 265t-272.5 106q-88 0 -159.5 -36.5t-116.5 -97.5q-15 -21 -39 -18l-10 1q-29 5 -26 35l80 722q3 29 31 29h631q31 0 31 -31v-22 q0 -30 -31 -30h-576l-69 -583q46 50 116 81t155 31q124 0 228.5 -57t167 -161t62.5 -233q0 -196 -134.5 -325t-338.5 -129z" />
<glyph unicode="6" horiz-adv-x="1191" d="M382 818q93 69 220 69q126 0 232.5 -59t169 -164t62.5 -232t-64 -232.5t-172 -165t-235 -59.5q-196 0 -334 132t-138 325q0 133 66 238l470 743q15 21 37 21h36q19 0 25 -11t-4 -26zM973 432q0 157 -110.5 265.5t-268.5 108.5t-268 -108.5t-110 -265.5t110 -266t268 -109 t268.5 109t110.5 266z" />
<glyph unicode="7" horiz-adv-x="1191" d="M992 1434q31 0 31 -31v-31q0 -17 -8 -38l-572 -1310q-11 -24 -35 -24h-32q-17 0 -24 10t0 26l575 1315h-720q-31 0 -31 30v22q0 31 31 31h785z" />
<glyph unicode="8" horiz-adv-x="1191" d="M596 -25q-197 0 -333 122.5t-136 300.5q0 136 85.5 242t231.5 145q-111 32 -177 120.5t-66 195.5q0 151 113.5 254t281.5 103t281.5 -103t113.5 -254q0 -107 -66 -195.5t-177 -120.5q146 -39 231.5 -145t85.5 -242q0 -178 -136 -300.5t-333 -122.5zM596 742 q-158 0 -267 -100.5t-109 -242.5q0 -141 109 -241.5t267 -100.5t267 100.5t109 241.5q0 142 -109 242.5t-267 100.5zM596 822q128 0 216 81t88 197t-87.5 196t-216.5 80t-216.5 -80t-87.5 -196t88 -197t216 -81z" />
<glyph unicode="9" horiz-adv-x="1191" d="M810 615q-92 -68 -220 -68q-126 0 -232.5 59t-169 163.5t-62.5 231.5t64 232.5t172 165t235 59.5q196 0 334 -132t138 -325q0 -131 -67 -237l-470 -744q-14 -20 -36 -20h-36q-19 0 -25 11t4 26zM219 1001q0 -157 110.5 -265t268.5 -108t268 108t110 265t-110 266 t-268 109t-268.5 -109t-110.5 -266z" />
<glyph unicode=":" horiz-adv-x="595" d="M217 56q0 34 23.5 57.5t57.5 23.5t57.5 -23.5t23.5 -57.5t-23.5 -57.5t-57.5 -23.5t-57.5 23.5t-23.5 57.5zM217 1005q0 34 23 57t58 23t58 -23t23 -57q0 -35 -23.5 -58t-57.5 -23t-57.5 23t-23.5 58z" />
<glyph unicode=";" horiz-adv-x="595" d="M217 1005q0 34 23 57t58 23t58 -23t23 -57q0 -35 -23.5 -58t-57.5 -23t-57.5 23t-23.5 58zM217 56q0 34 23.5 57.5t57.5 23.5t57.5 -23.5t23.5 -57.5q0 -16 -7 -34l-105 -239q-11 -24 -36 -24h-7q-17 0 -23.5 9.5t0.5 26.5l80 182q-29 6 -46.5 27.5t-17.5 51.5z" />
<glyph unicode="&#x3c;" horiz-adv-x="1150" d="M997 183q0 -19 -10.5 -24.5t-25.5 3.5l-797 472q-21 13 -21 37v18q0 24 21 37l797 472q15 9 25.5 3.5t10.5 -24.5v-38q0 -25 -20 -37l-719 -422l719 -422q20 -12 20 -37v-38z" />
<glyph unicode="=" horiz-adv-x="1150" d="M151 881q-31 0 -31 30v20q0 31 31 31h849q31 0 31 -31v-20q0 -30 -31 -30h-849zM151 398q-31 0 -31 31v20q0 30 31 30h849q31 0 31 -30v-20q0 -31 -31 -31h-849z" />
<glyph unicode="&#x3e;" horiz-adv-x="1150" d="M154 221q0 25 20 37l719 422l-719 422q-20 12 -20 37v38q0 19 10.5 24.5t25.5 -3.5l797 -472q21 -13 21 -37v-18q0 -24 -21 -37l-797 -472q-15 -9 -25.5 -3.5t-10.5 24.5v38z" />
<glyph unicode="?" horiz-adv-x="1096" d="M425 715q0 29 31 31q188 7 299 96t111 225q0 130 -109 218.5t-271 88.5q-175 0 -318 -118q-25 -20 -43 6l-14 20q-17 25 5 43q167 133 378 133q200 0 334 -114t134 -277q0 -158 -124 -267t-319 -122v-249q0 -31 -31 -31h-32q-31 0 -31 31v286zM400 53q0 33 22 55.5 t56 22.5t56 -22.5t22 -55.5t-22 -55.5t-56 -22.5t-56 22.5t-22 55.5z" />
<glyph unicode="@" horiz-adv-x="1927" d="M955 189q101 0 181.5 60t117.5 158v288q-37 98 -118 157.5t-181 59.5q-137 0 -230.5 -104t-93.5 -257t93.5 -257.5t230.5 -104.5zM1483 115q-81 0 -141.5 53t-79.5 136q-45 -83 -128 -136t-187 -53q-169 0 -284.5 126t-115.5 310t115.5 310t284.5 126q101 0 180 -48.5 t127 -127.5v125q0 31 31 31h21q30 0 30 -31v-598q11 -68 53 -108.5t101 -40.5q117 0 197 122t80 306q0 159 -62.5 301t-170 244t-256.5 161.5t-315 59.5t-314.5 -64t-255.5 -173.5t-170 -261.5t-63 -321q0 -170 62.5 -321.5t170.5 -261t261 -173.5t327 -64q272 0 493 145 q27 18 42 -12l6 -13q12 -25 -12 -41q-240 -154 -529 -154q-191 0 -359.5 69.5t-287.5 188.5t-188 284.5t-69 352.5q0 186 69.5 352.5t187.5 285t282 188t347 69.5q186 0 350.5 -65t282 -176.5t186 -267.5t68.5 -332q0 -216 -105 -359t-262 -143z" />
<glyph unicode="A" horiz-adv-x="1366" d="M1221 0q-26 0 -35 25l-153 393h-700l-153 -393q-9 -25 -35 -25h-42q-36 0 -23 36l544 1374q9 24 34 24h50q25 0 34 -24l544 -1374q13 -36 -23 -36h-42zM683 1324l-319 -823h638z" />
<glyph unicode="B" horiz-adv-x="1242" d="M219 0q-31 0 -31 31v1372q0 31 31 31h432q181 0 290 -102.5t109 -262.5q0 -122 -69 -207t-176 -111q139 -20 233 -115.5t94 -244.5q0 -172 -124.5 -281.5t-322.5 -109.5h-466zM954 1066q0 127 -86 206t-224 79h-361v-568h361q138 0 224 78t86 205zM1036 393 q0 137 -100 223t-260 86h-393v-619h393q161 0 260.5 85.5t99.5 224.5z" />
<glyph unicode="C" horiz-adv-x="1374" d="M820 59q219 0 399 139q25 21 43 -5l15 -23q18 -25 -5 -43q-197 -152 -452 -152q-152 0 -288 57.5t-233.5 156t-154.5 236.5t-57 292q0 206 96.5 376t265 267.5t371.5 97.5q242 0 433 -138q24 -19 7 -43l-16 -22q-17 -24 -42 -7q-178 126 -382 126q-176 0 -323 -88 t-231 -239t-84 -330q0 -134 50 -256t134.5 -210t203 -140t250.5 -52z" />
<glyph unicode="D" horiz-adv-x="1405" d="M640 1434q205 0 360 -90.5t237 -253t82 -373.5q0 -212 -82 -374t-237 -252.5t-360 -90.5h-421q-31 0 -31 31v1372q0 31 31 31h421zM283 1350v-1266h357q265 0 424.5 173t159.5 460t-159.5 460t-424.5 173h-357z" />
<glyph unicode="E" horiz-adv-x="1133" d="M188 1403q0 31 31 31h734q31 0 31 -31v-22q0 -30 -31 -30h-670v-589h613q31 0 31 -31v-21q0 -31 -31 -31h-613v-596h689q30 0 30 -31v-21q0 -31 -30 -31h-753q-31 0 -31 31v1372z" />
<glyph unicode="F" horiz-adv-x="1051" d="M188 1403q0 31 31 31h714q31 0 31 -31v-22q0 -30 -31 -30h-650v-587h593q30 0 30 -31v-21q0 -31 -30 -31h-593v-650q0 -31 -31 -31h-33q-31 0 -31 31v1372z" />
<glyph unicode="G" horiz-adv-x="1454" d="M820 1374q-176 0 -323 -88t-231 -239t-84 -330q0 -134 50 -256t134.5 -210t203 -140t250.5 -52q109 0 213 38t184 105v430h-450q-31 0 -31 31v21q0 31 31 31h513q31 0 31 -31v-502q0 -22 -18 -37q-95 -80 -216.5 -125t-256.5 -45q-152 0 -288 57.5t-233.5 156 t-154.5 236.5t-57 292q0 206 96.5 376t265 267.5t371.5 97.5q242 0 433 -138q24 -19 7 -43l-16 -22q-18 -26 -40 -8q-181 127 -384 127z" />
<glyph unicode="H" horiz-adv-x="1398" d="M188 1403q0 31 31 31h33q31 0 31 -31v-641h833v641q0 31 31 31h33q30 0 30 -31v-1372q0 -31 -30 -31h-33q-31 0 -31 31v648h-833v-648q0 -31 -31 -31h-33q-31 0 -31 31v1372z" />
<glyph unicode="I" horiz-adv-x="571" d="M302 1434q31 0 31 -31v-1372q0 -31 -31 -31h-33q-30 0 -30 31v1372q0 31 30 31h33z" />
<glyph unicode="J" horiz-adv-x="903" d="M638 1403q0 31 31 31h32q31 0 31 -31v-991q0 -216 -100.5 -326.5t-285.5 -110.5q-136 0 -255 57q-26 12 -15 40l10 25q11 30 40 16q108 -54 216 -54q141 0 218.5 89.5t77.5 263.5v991z" />
<glyph unicode="K" horiz-adv-x="1200" d="M283 762h195l487 653q13 19 37 19h41q20 0 25.5 -11t-5.5 -27l-502 -674l580 -684q12 -14 7 -26t-25 -12h-42q-23 0 -37 17l-563 662h-198v-648q0 -31 -31 -31h-33q-31 0 -31 31v1372q0 31 31 31h33q31 0 31 -31v-641z" />
<glyph unicode="L" horiz-adv-x="1054" d="M188 1403q0 31 31 31h33q31 0 31 -31v-1320h679q30 0 30 -31v-21q0 -31 -30 -31h-743q-31 0 -31 31v1372z" />
<glyph unicode="M" horiz-adv-x="1710" d="M846 484q-24 0 -37 20l-528 766v-1239q0 -31 -31 -31h-31q-31 0 -31 31v1372q0 31 31 31h34q24 0 37 -20l565 -822l565 822q13 20 37 20h34q31 0 31 -31v-1372q0 -31 -31 -31h-31q-30 0 -30 31v1239l-529 -766q-13 -20 -37 -20h-18z" />
<glyph unicode="N" horiz-adv-x="1414" d="M188 1403q0 31 31 31h35q24 0 37 -20l843 -1248v1237q0 31 30 31h31q31 0 31 -31v-1372q0 -31 -31 -31h-35q-25 0 -37 19l-842 1249v-1237q0 -31 -31 -31h-31q-31 0 -31 31v1372z" />
<glyph unicode="O" horiz-adv-x="1640" d="M820 59q132 0 250.5 52t203 140t134.5 210t50 256q0 179 -84 330t-231 239t-323 88t-323 -88t-231 -239t-84 -330q0 -134 50 -256t134.5 -210t203 -140t250.5 -52zM820 1458q203 0 371.5 -97.5t265 -267.5t96.5 -376q0 -154 -57 -292t-154.5 -236.5t-233.5 -156 t-288 -57.5t-288 57.5t-233.5 156t-154.5 236.5t-57 292q0 206 96.5 376t265 267.5t371.5 97.5z" />
<glyph unicode="P" horiz-adv-x="1165" d="M283 582v-551q0 -31 -31 -31h-33q-31 0 -31 31v1372q0 31 31 31h377q220 0 353 -116.5t133 -309.5t-133 -309.5t-353 -116.5h-313zM987 1008q0 156 -107 249.5t-286 93.5h-311v-686h311q179 0 286 93.5t107 249.5z" />
<glyph unicode="Q" horiz-adv-x="1640" d="M820 1458q203 0 371.5 -97.5t265 -267.5t96.5 -376q0 -163 -62 -304.5t-172 -244.5l189 -204q21 -23 -1 -43l-18 -17q-22 -21 -43 2l-194 208q-193 -139 -432 -139q-152 0 -288 57.5t-233.5 156t-154.5 236.5t-57 292q0 206 96.5 376t265 267.5t371.5 97.5zM820 59 q207 0 371 120l-293 316q-20 22 2 43l18 16q22 22 44 -1l294 -319q95 91 148.5 217t53.5 266q0 179 -84 330t-231 239t-323 88t-323 -88t-231 -239t-84 -330q0 -134 50 -256t134.5 -210t203 -140t250.5 -52z" />
<glyph unicode="R" horiz-adv-x="1201" d="M579 582h-296v-551q0 -31 -31 -31h-33q-31 0 -31 31v1372q0 31 31 31h377q220 0 353 -116.5t133 -309.5q0 -173 -108 -285.5t-293 -135.5l396 -549q11 -15 5.5 -26.5t-24.5 -11.5h-37q-24 0 -37 19zM987 1008q0 156 -107 249.5t-286 93.5h-311v-686h311q179 0 286 93.5 t107 249.5z" />
<glyph unicode="S" horiz-adv-x="1179" d="M139 225l21 22q22 22 44 -1q75 -83 177.5 -135t212.5 -52q170 0 280.5 84t110.5 216q0 127 -100 213.5t-296 126.5q-213 44 -327.5 144.5t-114.5 246.5q0 160 120 264t311 104q228 0 404 -162q22 -21 3 -43l-18 -22q-19 -23 -43 -2q-157 145 -339 145 q-153 0 -247.5 -78.5t-94.5 -198.5q0 -118 100.5 -198.5t282.5 -119.5q454 -99 454 -417q0 -168 -133.5 -277.5t-346.5 -109.5q-135 0 -257.5 57t-204.5 150q-19 22 1 43z" />
<glyph unicode="T" horiz-adv-x="1101" d="M504 1351h-406q-30 0 -30 30v22q0 31 30 31h906q30 0 30 -31v-22q0 -30 -30 -30h-406v-1320q0 -31 -31 -31h-32q-31 0 -31 31v1320z" />
<glyph unicode="U" horiz-adv-x="1339" d="M1169 486q0 -227 -139.5 -368t-359.5 -141t-360 141t-140 368v917q0 31 31 31h32q31 0 31 -31v-924q0 -185 114 -301.5t292 -116.5t291.5 116.5t113.5 301.5v924q0 31 31 31h33q30 0 30 -31v-917z" />
<glyph unicode="V" horiz-adv-x="1359" d="M680 119l504 1290q9 25 35 25h41q36 0 23 -36l-543 -1373q-9 -25 -34 -25h-52q-25 0 -34 24l-543 1374q-13 36 23 36h41q26 0 35 -25z" />
<glyph unicode="W" horiz-adv-x="1927" d="M939 1434h49q26 0 34 -26l370 -1272l365 1272q8 26 34 26h38q16 0 23 -10t2 -25l-402 -1373q-8 -26 -34 -26h-49q-26 0 -34 26l-371 1277l-372 -1277q-8 -26 -34 -26h-49q-26 0 -34 26l-402 1373q-5 15 2 25t23 10h38q26 0 34 -26l366 -1272l369 1272q8 26 34 26z" />
<glyph unicode="X" horiz-adv-x="1263" d="M142 0h-39q-19 0 -24.5 11t5.5 26l490 692l-472 668q-11 15 -5 26t25 11h39q23 0 37 -20l434 -612l434 612q14 20 37 20h39q19 0 24.5 -11t-5.5 -26l-472 -668l491 -692q11 -15 5 -26t-25 -11h-39q-24 0 -37 19l-452 637l-453 -637q-13 -19 -37 -19z" />
<glyph unicode="Y" horiz-adv-x="1304" d="M652 682l469 731q15 21 37 21h40q19 0 25 -11t-4 -26l-520 -809v-557q0 -31 -30 -31h-33q-31 0 -31 31v557l-519 809q-10 15 -4.5 26t24.5 11h40q22 0 37 -21z" />
<glyph unicode="Z" horiz-adv-x="1205" d="M957 1351h-770q-30 0 -30 30v22q0 31 30 31h849q31 0 31 -31v-32q0 -20 -11 -38l-820 -1250h821q30 0 30 -31v-21q0 -31 -30 -31h-900q-31 0 -31 31v31q0 20 11 38z" />
<glyph unicode="[" horiz-adv-x="833" d="M255 1505q0 31 31 31h447q31 0 31 -31v-21q0 -31 -31 -31h-384v-1657h384q31 0 31 -30v-22q0 -31 -31 -31h-447q-31 0 -31 31v1761z" />
<glyph unicode="\" horiz-adv-x="916" d="M72 1500q-6 17 0.5 26.5t23.5 9.5h37q26 0 35 -25l677 -1762q6 -16 -1 -26t-24 -10h-37q-25 0 -34 25z" />
<glyph unicode="]" horiz-adv-x="833" d="M579 -256q0 -31 -31 -31h-448q-30 0 -30 31v22q0 30 30 30h384v1657h-384q-30 0 -30 31v21q0 31 30 31h448q31 0 31 -31v-1761z" />
<glyph unicode="^" horiz-adv-x="1230" d="M641 1434q24 0 37 -20l398 -580q10 -16 5 -26.5t-24 -10.5h-42q-25 0 -37 19l-363 530l-362 -530q-12 -19 -37 -19h-42q-19 0 -24 10.5t5 26.5l398 580q13 20 37 20h51z" />
<glyph unicode="_" horiz-adv-x="1024" d="M0 -271q0 30 31 30h962q31 0 31 -30v-15q0 -30 -31 -30h-962q-31 0 -31 30v15z" />
<glyph unicode="`" horiz-adv-x="835" d="M518 1198q13 -14 8.5 -26t-24.5 -12h-29q-23 0 -38 18l-240 279q-13 14 -8 26t25 12h30q23 0 37 -17z" />
<glyph unicode="a" d="M1042 762q-68 113 -172 176.5t-234 63.5q-128 0 -234.5 -65t-166 -173.5t-59.5 -233.5t59.5 -233.5t166 -173.5t234.5 -65q130 0 234 64t172 177v463zM626 1085q127 0 235.5 -54.5t180.5 -151.5v151q0 31 31 31h31q31 0 31 -31v-999q0 -31 -31 -31h-31q-31 0 -31 31v151 q-73 -97 -181 -152t-235 -55q-153 0 -278.5 76.5t-195 203.5t-69.5 275t69.5 275t195 203.5t278.5 76.5z" />
<glyph unicode="b" d="M254 299q68 -113 172 -177t234 -64q128 0 234.5 65t166 173.5t59.5 233.5t-59.5 233.5t-166 173.5t-234.5 65q-130 0 -234 -63.5t-172 -176.5v-463zM671 1085q153 0 278 -76.5t194.5 -203.5t69.5 -275t-69.5 -275t-194.5 -203.5t-278 -76.5q-127 0 -236 55t-181 152v-151 q0 -31 -31 -31h-30q-31 0 -31 31v1433q0 31 31 31h30q31 0 31 -31v-585q72 97 181 151.5t236 54.5z" />
<glyph unicode="c" horiz-adv-x="1111" d="M636 -25q-155 0 -283 76t-199 203t-71 276t71 276t199 203t283 76q208 0 358 -131q22 -19 6 -42l-14 -22q-18 -27 -43 -5q-133 117 -307 117q-128 0 -234.5 -65t-166 -173.5t-59.5 -233.5t59.5 -233.5t166 -173.5t234.5 -65q184 0 320 131q21 23 43 -2l18 -20 q19 -22 0 -41q-156 -151 -381 -151z" />
<glyph unicode="d" d="M1042 762q-68 113 -172 176.5t-234 63.5q-128 0 -234.5 -65t-166 -173.5t-59.5 -233.5t59.5 -233.5t166 -173.5t234.5 -65q130 0 234 64t172 177v463zM626 1085q127 0 235.5 -54.5t180.5 -151.5v585q0 31 31 31h31q31 0 31 -31v-1433q0 -31 -31 -31h-31q-31 0 -31 31v151 q-73 -97 -181 -152t-235 -55q-153 0 -278.5 76.5t-195 203.5t-69.5 275t69.5 275t195 203.5t278.5 76.5z" />
<glyph unicode="e" horiz-adv-x="1226" d="M177 507q4 -122 62.5 -225t163 -164.5t233.5 -61.5q206 0 351 159q21 24 43 2l20 -18q23 -21 3 -43q-76 -85 -184 -133t-232 -48q-160 0 -288 75.5t-197 202t-69 277.5q0 150 69.5 277t194 202.5t277.5 75.5q149 0 268.5 -70.5t185.5 -190.5t66 -264q0 -16 -1 -24 q-3 -29 -33 -29h-933zM624 1005q-174 0 -300 -122.5t-144 -296.5h869q-12 182 -131 300.5t-294 118.5z" />
<glyph unicode="f" horiz-adv-x="749" d="M700 1458v-19q0 -32 -32 -29q-30 3 -63 3q-250 0 -250 -279v-73h315q30 0 30 -31v-20q0 -31 -30 -31h-315v-948q0 -31 -30 -31h-31q-31 0 -31 31v948h-183q-31 0 -31 31v20q0 31 31 31h183v75q0 174 85 266.5t252 92.5q34 0 72 -4q28 -3 28 -33z" />
<glyph unicode="g" d="M1042 762q-68 113 -172 176.5t-234 63.5q-128 0 -234.5 -65t-166 -173.5t-59.5 -233.5t59.5 -233.5t166 -173.5t234.5 -65q130 0 234 64t172 177v463zM1042 1030q0 31 31 31h31q31 0 31 -31v-1042q0 -207 -134 -335t-356 -128q-132 0 -242.5 49.5t-192.5 135.5 q-21 21 0 43l18 20q22 23 44 -1q156 -166 372 -166q177 0 287.5 104.5t110.5 273.5v198q-73 -97 -181 -152t-235 -55q-153 0 -278.5 76.5t-195 203.5t-69.5 275t69.5 275t195 203.5t278.5 76.5q127 0 235.5 -54.5t180.5 -151.5v151z" />
<glyph unicode="h" horiz-adv-x="1211" d="M254 31q0 -31 -31 -31h-30q-31 0 -31 31v1433q0 31 31 31h30q31 0 31 -31v-645q153 266 399 266q179 0 297 -118.5t118 -295.5v-640q0 -31 -31 -31h-30q-31 0 -31 31v634q0 143 -95.5 240t-241.5 97q-227 0 -385 -300v-671z" />
<glyph unicode="i" horiz-adv-x="523" d="M215 1030q0 31 31 31h30q31 0 31 -31v-999q0 -31 -31 -31h-30q-31 0 -31 31v999zM185 1372q0 33 22 55t54 22q33 0 55 -22t22 -55q0 -32 -22 -54t-55 -22q-32 0 -54 22t-22 54z" />
<glyph unicode="j" horiz-adv-x="523" d="M185 1372q0 33 22 55t54 22q33 0 55 -22t22 -55q0 -32 -22 -54t-55 -22q-32 0 -54 22t-22 54zM215 1030q0 31 31 31h30q31 0 31 -31v-1229q0 -136 -67 -206t-184 -70q-32 0 -47 1q-28 2 -28 33v19q0 32 31 30q12 -1 37 -1q76 0 121 48.5t45 144.5v1230z" />
<glyph unicode="k" horiz-adv-x="1031" d="M446 549h-192v-518q0 -31 -31 -31h-30q-31 0 -31 31v1433q0 31 31 31h30q31 0 31 -31v-834h195l372 414q14 17 38 17h41q20 0 25.5 -12t-7.5 -26l-391 -433l449 -552q12 -15 6.5 -26.5t-24.5 -11.5h-42q-23 0 -36 17z" />
<glyph unicode="l" horiz-adv-x="522" d="M215 1464q0 31 31 31h30q31 0 31 -31v-1433q0 -31 -31 -31h-30q-31 0 -31 31v1433z" />
<glyph unicode="m" horiz-adv-x="1886" d="M254 31q0 -31 -31 -31h-30q-31 0 -31 31v999q0 31 31 31h30q31 0 31 -31v-199q26 49 58 90.5t76.5 80t103.5 61t125 22.5q132 0 229 -75.5t131 -197.5q144 273 385 273q167 0 274 -114t107 -284v-656q0 -31 -31 -31h-31q-30 0 -30 31v650q0 135 -84 228t-216 93 q-209 0 -354 -290q1 -8 1 -25v-656q0 -31 -30 -31h-31q-31 0 -31 31v650q0 135 -84 228t-216 93q-206 0 -352 -288v-683z" />
<glyph unicode="n" horiz-adv-x="1211" d="M254 31q0 -31 -31 -31h-30q-31 0 -31 31v999q0 31 31 31h30q31 0 31 -31v-211q153 266 399 266q179 0 297 -118.5t118 -295.5v-640q0 -31 -31 -31h-30q-31 0 -31 31v634q0 143 -95.5 240t-241.5 97q-227 0 -385 -300v-671z" />
<glyph unicode="o" horiz-adv-x="1271" d="M636 58q128 0 234.5 65t166 173.5t59.5 233.5t-59.5 233.5t-166 173.5t-234.5 65t-234.5 -65t-166 -173.5t-59.5 -233.5t59.5 -233.5t166 -173.5t234.5 -65zM636 1085q155 0 283 -76t199 -203t71 -276t-71 -276t-199 -203t-283 -76t-283 76t-199 203t-71 276t71 276 t199 203t283 76z" />
<glyph unicode="p" d="M254 299q68 -113 172 -177t234 -64q128 0 234.5 65t166 173.5t59.5 233.5t-59.5 233.5t-166 173.5t-234.5 65q-130 0 -234 -63.5t-172 -176.5v-463zM671 1085q153 0 278 -76.5t194.5 -203.5t69.5 -275t-69.5 -275t-194.5 -203.5t-278 -76.5q-127 0 -236 55t-181 152v-626 q0 -31 -31 -31h-30q-31 0 -31 31v1474q0 31 31 31h30q31 0 31 -31v-151q72 97 181 151.5t236 54.5z" />
<glyph unicode="q" d="M1042 762q-68 113 -172 176.5t-234 63.5q-128 0 -234.5 -65t-166 -173.5t-59.5 -233.5t59.5 -233.5t166 -173.5t234.5 -65q130 0 234 64t172 177v463zM626 1085q127 0 235.5 -54.5t180.5 -151.5v151q0 31 31 31h31q31 0 31 -31v-1474q0 -31 -31 -31h-31q-31 0 -31 31v626 q-73 -97 -181 -152t-235 -55q-153 0 -278.5 76.5t-195 203.5t-69.5 275t69.5 275t195 203.5t278.5 76.5z" />
<glyph unicode="r" horiz-adv-x="776" d="M610 1002q-95 0 -191 -91.5t-165 -227.5v-652q0 -31 -31 -31h-30q-31 0 -31 31v999q0 31 31 31h30q31 0 31 -31v-221q70 115 165 195.5t202 80.5q40 0 79 -11q26 -8 23 -37l-2 -22q-3 -32 -38 -23q-40 10 -73 10z" />
<glyph unicode="s" horiz-adv-x="934" d="M100 174l14 16q20 27 44 3q127 -137 315 -137q130 0 208.5 60t78.5 156q0 89 -79 151t-222 89q-168 32 -255.5 107.5t-87.5 183.5q0 119 98 200.5t251 81.5q182 0 314 -117q21 -18 3 -43l-13 -17q-19 -25 -43 -4q-117 101 -256 101q-114 0 -188 -59t-74 -144 q0 -74 73 -130.5t207 -82.5q175 -33 269.5 -113.5t94.5 -204.5q0 -130 -100.5 -213t-274.5 -83q-230 0 -376 156q-20 21 -1 43z" />
<glyph unicode="t" horiz-adv-x="763" d="M364 312q0 -255 243 -255q35 0 69 3q33 3 33 -28v-20q0 -29 -29 -32q-63 -5 -78 -5q-331 0 -331 336v668h-191q-31 0 -31 31v20q0 31 31 31h191v269q0 30 30 33l31 2q32 3 32 -29v-275h302q30 0 30 -31v-20q0 -31 -30 -31h-302v-667z" />
<glyph unicode="u" horiz-adv-x="1211" d="M957 1030q0 31 31 31h31q31 0 31 -31v-999q0 -31 -31 -31h-31q-31 0 -31 31v210q-154 -266 -398 -266q-179 0 -297.5 118.5t-118.5 296.5v640q0 31 31 31h31q31 0 31 -31v-634q0 -143 95.5 -240.5t241.5 -97.5q224 0 384 299v673z" />
<glyph unicode="v" horiz-adv-x="1047" d="M582 24q-9 -24 -36 -24h-44q-27 0 -36 24l-410 1001q-6 16 1 26t24 10h36q26 0 35 -24l371 -912l372 912q9 24 36 24h36q17 0 23.5 -9.5t0.5 -26.5z" />
<glyph unicode="w" horiz-adv-x="1564" d="M803 1061q27 0 35 -26l281 -896l295 896q8 26 35 26h37q17 0 23.5 -10t1.5 -25l-336 -1001q-8 -25 -35 -25h-41q-27 0 -35 26l-282 897l-281 -897q-8 -26 -35 -26h-41q-27 0 -35 25l-337 1001q-5 15 2 25t24 10h37q27 0 35 -26l294 -896l282 896q8 26 35 26h41z" />
<glyph unicode="x" horiz-adv-x="1047" d="M89 0q-19 0 -24 11.5t7 26.5l394 507l-369 478q-11 15 -5.5 26.5t24.5 11.5h37q23 0 37 -19l333 -432l334 432q16 19 38 19h37q19 0 24.5 -11.5t-6.5 -26.5l-368 -478l394 -507q12 -15 6.5 -26.5t-24.5 -11.5h-36q-23 0 -38 18l-361 461l-359 -461q-15 -18 -38 -18h-37z " />
<glyph unicode="y" horiz-adv-x="1062" d="M487 13l-430 1012q-7 16 0 26t24 10h36q25 0 36 -24l383 -904l374 904q9 24 36 24h36q17 0 24.5 -10t0.5 -26l-613 -1477q-9 -23 -36 -23h-35q-17 0 -24 10t0 26z" />
<glyph unicode="z" horiz-adv-x="1015" d="M105 60q0 22 13 39l654 880h-609q-31 0 -31 31v20q0 31 31 31h691q31 0 31 -31v-30q0 -21 -13 -38l-653 -880h655q31 0 31 -31v-20q0 -31 -31 -31h-738q-31 0 -31 31v29z" />
<glyph unicode="{" horiz-adv-x="833" d="M164 613v23q0 28 30 31q89 11 143 69.5t54 144.5v354q0 127 87 214t216 87h49q31 0 31 -31v-21q0 -31 -31 -31h-45q-91 0 -152 -64t-61 -158v-360q0 -94 -49.5 -157.5t-135.5 -88.5q86 -25 135.5 -88.5t49.5 -158.5v-360q0 -94 61 -158t152 -64h45q31 0 31 -30v-22 q0 -31 -31 -31h-49q-129 0 -216 87t-87 214v355q0 86 -54 144.5t-143 69.5q-30 3 -30 30z" />
<glyph unicode="|" horiz-adv-x="651" d="M281 -256v1761q0 31 30 31h29q31 0 31 -31v-1761q0 -31 -31 -31h-29q-30 0 -30 31z" />
<glyph unicode="}" horiz-adv-x="833" d="M670 636v-23q0 -27 -30 -30q-89 -11 -143.5 -69.5t-54.5 -144.5v-355q0 -127 -87 -214t-216 -87h-49q-31 0 -31 31v22q0 30 31 30h45q91 0 152 64t61 158v360q0 94 50 158t136 89q-87 25 -136.5 88.5t-49.5 157.5v360q0 94 -61 158t-152 64h-45q-31 0 -31 31v21 q0 31 31 31h49q129 0 216 -87t87 -214v-354q0 -86 54.5 -144.5t143.5 -69.5q30 -3 30 -31z" />
<glyph unicode="~" horiz-adv-x="1150" d="M553 633q-38 38 -64 61.5t-68.5 46t-80.5 22.5q-142 0 -182 -190q-6 -31 -37 -23l-27 6q-29 8 -23 37q25 121 92 187t172 66q130 0 263 -137q38 -38 64 -61.5t68.5 -46t80.5 -22.5q142 0 182 189q6 32 37 24l27 -7q29 -8 23 -36q-25 -121 -92 -187t-172 -66 q-130 0 -263 137z" />
<glyph unicode="&#xa1;" horiz-adv-x="620" d="M263 647q0 31 31 31h33q30 0 30 -31v-989q0 -31 -30 -31h-33q-31 0 -31 31v989zM232 1008q0 33 22 55t56 22t56 -22t22 -55t-22 -55.5t-56 -22.5t-56 22.5t-22 55.5z" />
<glyph unicode="&#xa2;" horiz-adv-x="1111" d="M671 1084q184 -10 323 -130q22 -19 6 -42l-14 -22q-17 -27 -43 -6q-120 104 -272 116v-941q162 12 285 130q21 23 43 -2l18 -20q19 -24 -2 -43q-141 -136 -344 -148v-134q0 -30 -31 -30h-20q-31 0 -31 30v135q-219 18 -362.5 177t-143.5 376q0 216 143.5 375.5 t362.5 177.5v136q0 30 31 30h20q31 0 31 -30v-135zM176 530q0 -180 117.5 -315.5t295.5 -154.5v939q-178 -19 -295.5 -154t-117.5 -315z" />
<glyph unicode="&#xa3;" horiz-adv-x="1152" d="M178 611q-31 0 -31 31v17q0 31 31 31h122q-9 22 -24 53q-81 168 -81 304q0 172 121 291.5t296 119.5q131 0 232 -67.5t147 -170.5q12 -26 -15 -40l-25 -14q-28 -15 -41 16q-41 87 -119 139.5t-179 52.5q-135 0 -228.5 -95t-93.5 -232q0 -44 13 -97t25 -85t37 -91 l10.5 -24.5t13 -32.5t9.5 -27h412q31 0 31 -31v-17q0 -31 -31 -31h-391q28 -93 28 -158q0 -105 -44.5 -203.5t-119.5 -165.5h719q31 0 31 -31v-22q0 -31 -31 -31h-818q-30 0 -30 31v27q0 23 17 37q84 72 132.5 166t48.5 192q0 62 -29 158h-145z" />
<glyph unicode="&#xa4;" horiz-adv-x="1254" d="M179 668q0 162 104 282l-178 177q-21 21 0 43l18 18q21 21 43 0l180 -178q123 100 281 100t281 -100l181 178q22 21 43 0l17 -18q21 -22 0 -43l-177 -177q103 -119 103 -282q0 -165 -103 -285l177 -176q22 -21 0 -43l-17 -18q-21 -21 -43 0l-181 179q-121 -100 -281 -100 t-281 100l-180 -179q-22 -21 -43 0l-18 18q-22 22 0 43l178 176q-104 121 -104 285zM270 668q0 -151 103.5 -256.5t253.5 -105.5t253.5 105.5t103.5 256.5t-103.5 256t-253.5 105t-253.5 -105t-103.5 -256z" />
<glyph unicode="&#xa5;" horiz-adv-x="1304" d="M652 682l469 731q15 21 37 21h40q19 0 25 -11t-4 -26l-459 -715h322q31 0 31 -31v-12q0 -31 -31 -31h-369l-14 -20v-122h383q31 0 31 -31v-12q0 -31 -31 -31h-383v-361q0 -31 -30 -31h-33q-31 0 -31 31v361h-383q-31 0 -31 31v12q0 31 31 31h383v122l-13 20h-370 q-31 0 -31 31v12q0 31 31 31h323l-459 715q-10 15 -4.5 26t24.5 11h40q22 0 37 -21z" />
<glyph unicode="&#xa6;" horiz-adv-x="651" d="M281 1505q0 31 30 31h29q31 0 31 -31v-757q0 -31 -31 -31h-29q-30 0 -30 31v757zM281 502q0 30 30 30h29q31 0 31 -30v-758q0 -31 -31 -31h-29q-30 0 -30 31v758z" />
<glyph unicode="&#xa7;" horiz-adv-x="1011" d="M935 519q0 -99 -69.5 -174.5t-182.5 -102.5q170 -95 170 -248q0 -128 -103 -214.5t-255 -86.5q-122 0 -216.5 58.5t-128.5 156.5q-9 30 21 38l26 6q26 6 37 -22q28 -74 99.5 -115.5t161.5 -41.5q113 0 190.5 63.5t77.5 157.5q0 130 -176 205l-236 101q-134 58 -204 143 t-70 188q0 99 69 174t181 102q-168 97 -168 250q0 128 102.5 214.5t255.5 86.5q122 0 216 -58.5t128 -157.5q10 -29 -22 -37l-25 -6q-27 -7 -38 22q-28 73 -99 115t-160 42q-113 0 -190.5 -64t-77.5 -157q0 -131 175 -206l235 -100q134 -58 205 -143.5t71 -188.5zM436 855 q-114 -3 -191.5 -67t-77.5 -157q0 -81 59 -147.5t165 -110.5l183 -78q115 3 193 67t78 157q0 81 -59.5 148t-165.5 111z" />
<glyph unicode="&#xa8;" horiz-adv-x="835" d="M168 1323q0 32 22 54.5t55 22.5t55 -22.5t22 -54.5t-22 -54.5t-55 -22.5t-55 22.5t-22 54.5zM514 1323q0 32 22 54.5t55 22.5t55 -22.5t22 -54.5t-22 -54.5t-55 -22.5t-55 22.5t-22 54.5z" />
<glyph unicode="&#xa9;" horiz-adv-x="1630" d="M849 390q105 0 198 68q28 20 43 -8l7 -13q14 -25 -10 -42q-106 -79 -238 -79q-166 0 -280.5 115.5t-114.5 283.5t114.5 283t280.5 115q121 0 228 -72q23 -16 9 -43l-5 -10q-16 -27 -43 -9q-91 60 -189 60q-132 0 -223 -94.5t-91 -229.5t91 -230t223 -95zM74 717 q0 153 58 290t157 236t236 157t290 58t290 -58t236 -157t157 -236t58 -290t-58 -290.5t-157 -236.5t-236 -157t-290 -58t-290 58t-236 157t-157 236.5t-58 290.5zM141 717q0 -186 89.5 -342t244.5 -246.5t340 -90.5t340 90.5t244.5 246.5t89.5 342t-89.5 342t-244.5 246.5 t-340 90.5t-340 -90.5t-244.5 -246.5t-89.5 -342z" />
<glyph unicode="&#xaa;" horiz-adv-x="915" d="M454 672q-158 0 -268.5 113t-110.5 276t110.5 276t268.5 113q82 0 152.5 -34t118.5 -95v82q0 31 31 31h23q31 0 31 -31v-684q0 -31 -31 -31h-23q-31 0 -31 31v82q-48 -61 -118.5 -95t-152.5 -34zM725 1218q-40 70 -110 112t-154 42q-126 0 -213.5 -90.5t-87.5 -220.5 t87.5 -220.5t213.5 -90.5q84 0 154 42t110 112v314z" />
<glyph unicode="&#xab;" horiz-adv-x="1274" d="M110 640q0 23 20 37l478 311q16 10 26.5 5t10.5 -24v-22q0 -23 -20 -37l-421 -271l421 -271q20 -14 20 -37v-22q0 -19 -10.5 -24t-26.5 5l-478 311q-20 14 -20 37v2zM611 640q0 22 21 37l478 311q16 10 26.5 5t10.5 -24v-22q0 -22 -21 -37l-420 -271l420 -271 q21 -15 21 -37v-22q0 -19 -10.5 -24t-26.5 5l-478 311q-21 15 -21 37v2z" />
<glyph unicode="&#xac;" horiz-adv-x="1150" d="M939 639h-788q-31 0 -31 31v19q0 31 31 31h849q31 0 31 -31v-407q0 -31 -31 -31h-30q-31 0 -31 31v357z" />
<glyph unicode="&#xad;" horiz-adv-x="806" d="M148 637q-30 0 -30 31v24q0 31 30 31h510q31 0 31 -31v-24q0 -31 -31 -31h-510z" />
<glyph unicode="&#xae;" horiz-adv-x="1630" d="M673 633v-273q0 -30 -31 -30h-16q-31 0 -31 30v710q0 31 31 31h200q119 0 193 -65t74 -169q0 -89 -54.5 -149.5t-146.5 -77.5l192 -273q11 -15 5.5 -26t-24.5 -11h-18q-24 0 -37 19l-200 284h-137zM1016 865q0 73 -53.5 118.5t-140.5 45.5h-149v-329h149q87 0 140.5 45.5 t53.5 119.5zM74 717q0 153 58 290t157 236t236 157t290 58t290 -58t236 -157t157 -236t58 -290t-58 -290.5t-157 -236.5t-236 -157t-290 -58t-290 58t-236 157t-157 236.5t-58 290.5zM141 717q0 -186 89.5 -342t244.5 -246.5t340 -90.5t340 90.5t244.5 246.5t89.5 342 t-89.5 342t-244.5 246.5t-340 90.5t-340 -90.5t-244.5 -246.5t-89.5 -342z" />
<glyph unicode="&#xaf;" horiz-adv-x="835" d="M141 1328q0 31 31 31h492q30 0 30 -31v-14q0 -31 -30 -31h-492q-31 0 -31 31v14z" />
<glyph unicode="&#xb0;" horiz-adv-x="794" d="M203 1182q0 -83 56 -140.5t138 -57.5t138.5 57.5t56.5 140.5t-56.5 140t-138.5 57t-138 -57t-56 -140zM126 1182q0 113 78.5 190.5t192.5 77.5t193 -78t79 -190q0 -113 -79 -191t-193 -78t-192.5 78t-78.5 191z" />
<glyph unicode="&#xb1;" horiz-adv-x="1150" d="M529 714h-378q-31 0 -31 30v20q0 31 31 31h378v391q0 31 31 31h31q31 0 31 -31v-391h378q31 0 31 -31v-20q0 -30 -31 -30h-378v-391q0 -31 -31 -31h-31q-31 0 -31 31v391zM151 0q-31 0 -31 31v19q0 31 31 31h849q31 0 31 -31v-19q0 -31 -31 -31h-849z" />
<glyph unicode="&#xb2;" horiz-adv-x="794" d="M213 536h428q31 0 31 -31v-11q0 -31 -31 -31h-513q-31 0 -31 31v12q0 20 15 38l377 422q107 118 107 233q0 78 -59.5 132t-150.5 54q-74 0 -129.5 -40t-79.5 -110q-10 -31 -38 -20l-19 8q-30 11 -21 38q27 89 105 143t182 54q126 0 211 -74.5t85 -184.5q0 -135 -126 -277 z" />
<glyph unicode="&#xb3;" horiz-adv-x="794" d="M612 748q0 99 -74 167.5t-178 68.5q-33 0 -61 -7q-25 -6 -39 12l-6 8q-13 18 5 39l290 324h-398q-31 0 -31 31v12q0 31 31 31h474q30 0 30 -31v-14q0 -21 -14 -38l-275 -304q140 -5 236 -88.5t96 -215.5q0 -127 -96 -216t-241 -89q-173 0 -276 136q-17 22 4 43l12 13 q24 22 43 -5q85 -114 216 -114q105 0 178.5 68t73.5 169z" />
<glyph unicode="&#xb4;" horiz-adv-x="835" d="M317 1198l240 280q14 17 37 17h30q20 0 25 -12t-8 -26l-241 -279q-15 -18 -38 -18h-27q-20 0 -25.5 12t7.5 26z" />
<glyph unicode="&#xb5;" horiz-adv-x="1229" d="M162 1030q0 31 31 31h30q31 0 31 -31v-716q43 -111 135 -183.5t201 -72.5q117 0 216.5 79.5t169.5 207.5v685q0 31 31 31h30q31 0 31 -31v-999q0 -31 -31 -31h-30q-31 0 -31 31v194q-67 -106 -168 -178t-224 -72q-106 0 -194 59t-136 143v-621q0 -31 -31 -31h-30 q-31 0 -31 31v1474z" />
<glyph unicode="&#xb6;" horiz-adv-x="1163" d="M558 549q-192 0 -323.5 127.5t-131.5 314.5t131.5 315t323.5 128h382q31 0 31 -31v-1641q0 -30 -31 -30h-15q-31 0 -31 30v1600h-184v-1600q0 -30 -31 -30h-15q-31 0 -31 30v787h-75z" />
<glyph unicode="&#xb7;" horiz-adv-x="595" d="M217 675q0 35 23.5 58t57.5 23t57.5 -23t23.5 -58t-23.5 -58t-57.5 -23t-57.5 23t-23.5 58z" />
<glyph unicode="&#xb8;" horiz-adv-x="835" d="M373 -199q-14 0 -36 -2q-23 -3 -31 8q-9 12 3 35l79 136q12 22 37 22h10q18 0 24 -11t-3 -26l-63 -103q99 -5 159.5 -62t60.5 -134q0 -84 -68 -140t-169 -56q-84 0 -146 39q-24 15 -7 42l3 6q15 24 42 8q52 -30 105 -30q69 0 116 38t47 94t-47 96t-116 40z" />
<glyph unicode="&#xb9;" horiz-adv-x="794" d="M477 1434q31 0 31 -31v-909q0 -31 -31 -31h-23q-31 0 -31 31v849l-194 -107q-28 -15 -41 12l-5 10q-14 27 12 42l223 123q19 11 38 11h21z" />
<glyph unicode="&#xba;" horiz-adv-x="915" d="M71 1061q0 163 113 276t274 113t274 -113t113 -276t-113 -276t-274 -113t-274 113t-113 276zM157 1061q0 -131 87.5 -221.5t213.5 -90.5t213.5 90.5t87.5 221.5t-87.5 221t-213.5 90t-213.5 -90t-87.5 -221z" />
<glyph unicode="&#xbb;" horiz-adv-x="1274" d="M1165 638q0 -23 -20 -37l-478 -311q-17 -10 -27 -5t-10 24v22q0 23 20 37l421 271l-421 271q-20 14 -20 37v22q0 19 10 24t27 -5l478 -311q20 -14 20 -37v-2zM664 638q0 -22 -21 -37l-478 -311q-17 -10 -27 -5t-10 24v22q0 23 20 37l421 271l-421 271q-20 14 -20 37v22 q0 19 10 24t27 -5l478 -311q21 -15 21 -37v-2z" />
<glyph unicode="&#xbc;" horiz-adv-x="1917" d="M1253 1411q11 23 36 23h24q38 0 22 -36l-670 -1375q-11 -23 -36 -23h-24q-38 0 -22 36zM477 1434q31 0 31 -31v-909q0 -31 -31 -31h-23q-31 0 -31 31v849l-194 -107q-28 -15 -41 12l-5 10q-14 27 12 42l223 123q19 11 38 11h21zM1169 266q0 18 13 38l444 647q13 20 37 20 h26q30 0 30 -31v-646h105q30 0 30 -31v-13q0 -31 -30 -31h-105v-188q0 -31 -30 -31h-24q-31 0 -31 31v188h-434q-31 0 -31 31v16zM1634 294v536l-365 -536h365z" />
<glyph unicode="&#xbd;" horiz-adv-x="1917" d="M477 1434q31 0 31 -31v-909q0 -31 -31 -31h-23q-31 0 -31 31v849l-194 -107q-28 -15 -41 12l-5 10q-14 27 12 42l223 123q19 11 38 11h21zM1253 1411q11 23 36 23h24q38 0 22 -36l-670 -1375q-11 -23 -36 -23h-24q-38 0 -22 36zM1336 73h428q31 0 31 -31v-11 q0 -31 -31 -31h-513q-30 0 -30 31v12q0 21 14 38l378 422q106 117 106 233q0 78 -60 132.5t-150 54.5q-74 0 -129.5 -40.5t-79.5 -110.5q-9 -30 -37 -19l-20 7q-29 10 -20 38q27 89 104.5 143t181.5 54q126 0 211 -74.5t85 -184.5q0 -134 -126 -277z" />
<glyph unicode="&#xbe;" horiz-adv-x="1917" d="M612 748q0 99 -74 167.5t-178 68.5q-33 0 -61 -7q-25 -6 -39 12l-6 8q-13 18 5 39l290 324h-398q-31 0 -31 31v12q0 31 31 31h474q30 0 30 -31v-14q0 -21 -14 -38l-275 -304q140 -5 236 -88.5t96 -215.5q0 -127 -96 -216t-241 -89q-173 0 -276 136q-17 22 4 43l12 13 q24 22 43 -5q85 -114 216 -114q105 0 178.5 68t73.5 169zM1253 1411q11 23 36 23h24q38 0 22 -36l-670 -1375q-11 -23 -36 -23h-24q-38 0 -22 36zM1169 266q0 18 13 38l444 647q13 20 37 20h26q30 0 30 -31v-646h105q30 0 30 -31v-13q0 -31 -30 -31h-105v-188q0 -31 -30 -31 h-24q-31 0 -31 31v188h-434q-31 0 -31 31v16zM1634 294v536l-365 -536h365z" />
<glyph unicode="&#xbf;" horiz-adv-x="1096" d="M672 346q0 -30 -31 -32q-188 -7 -299.5 -96t-111.5 -224q0 -130 109 -218.5t271 -88.5q177 0 319 117q25 21 43 -5l14 -20q17 -25 -5 -43q-167 -133 -378 -133q-200 0 -334 114t-134 277q0 158 124 267t319 122v249q0 31 30 31h33q31 0 31 -31v-286zM696 1008 q0 -33 -22 -55.5t-56 -22.5q-33 0 -55 22.5t-22 55.5t21.5 55t55.5 22t56 -22t22 -55z" />
<glyph unicode="&#xc0;" horiz-adv-x="1366" d="M1221 0q-26 0 -35 25l-153 393h-700l-153 -393q-9 -25 -35 -25h-42q-36 0 -23 36l544 1374q9 24 34 24h50q25 0 34 -24l544 -1374q13 -36 -23 -36h-42zM683 1324l-319 -823h638zM768 1589q13 -14 8.5 -26t-24.5 -12h-29q-23 0 -38 18l-240 279q-13 14 -8 26t25 12h30 q23 0 37 -17z" />
<glyph unicode="&#xc1;" horiz-adv-x="1366" d="M1221 0q-26 0 -35 25l-153 393h-700l-153 -393q-9 -25 -35 -25h-42q-36 0 -23 36l544 1374q9 24 34 24h50q25 0 34 -24l544 -1374q13 -36 -23 -36h-42zM683 1324l-319 -823h638zM595 1589l240 280q14 17 36 17h30q20 0 25.5 -12t-7.5 -26l-241 -279q-15 -18 -38 -18h-28 q-20 0 -25 12t8 26z" />
<glyph unicode="&#xc2;" horiz-adv-x="1366" d="M1221 0q-26 0 -35 25l-153 393h-700l-153 -393q-9 -25 -35 -25h-42q-36 0 -23 36l544 1374q9 24 34 24h50q25 0 34 -24l544 -1374q13 -36 -23 -36h-42zM683 1324l-319 -823h638zM982 1589q13 -15 8 -26.5t-25 -11.5h-23q-25 0 -38 16l-221 247l-221 -247q-13 -16 -38 -16 h-24q-20 0 -24.5 11.5t8.5 26.5l250 280q14 17 38 17h22q24 0 38 -17z" />
<glyph unicode="&#xc3;" horiz-adv-x="1366" d="M1221 0q-26 0 -35 25l-153 393h-700l-153 -393q-9 -25 -35 -25h-42q-36 0 -23 36l544 1374q9 24 34 24h50q25 0 34 -24l544 -1374q13 -36 -23 -36h-42zM683 1324l-319 -823h638zM680 1645l-22 22q-27 27 -41 40t-36 25.5t-42 12.5q-69 0 -98 -118q-8 -30 -37 -24l-19 4 q-32 7 -24 37q24 89 65 133t105 44q79 0 159 -85l21 -22q23 -24 38 -38t36.5 -25.5t41.5 -11.5q69 0 98 118q8 31 37 25l19 -4q32 -7 24 -37q-24 -89 -65 -133t-105 -44q-78 0 -155 81z" />
<glyph unicode="&#xc4;" horiz-adv-x="1366" d="M1221 0q-26 0 -35 25l-153 393h-700l-153 -393q-9 -25 -35 -25h-42q-36 0 -23 36l544 1374q9 24 34 24h50q25 0 34 -24l544 -1374q13 -36 -23 -36h-42zM683 1324l-319 -823h638zM433 1704q0 32 22 54.5t55 22.5t55 -22.5t22 -54.5t-22 -54.5t-55 -22.5t-55 22.5t-22 54.5 zM779 1704q0 32 22 54.5t55 22.5t55 -22.5t22 -54.5t-22 -54.5t-55 -22.5t-55 22.5t-22 54.5z" />
<glyph unicode="&#xc5;" horiz-adv-x="1366" d="M1221 0q-26 0 -35 25l-153 393h-700l-153 -393q-9 -25 -35 -25h-42q-36 0 -23 36l544 1374q9 24 34 24h50q25 0 34 -24l544 -1374q13 -36 -23 -36h-42zM683 1324l-319 -823h638zM551 1726q0 -56 38 -94t94 -38t94 38t38 94t-38 94t-94 38t-94 -38t-38 -94zM480 1726 q0 83 58.5 139t144.5 56t144.5 -56t58.5 -139t-58.5 -139.5t-144.5 -56.5t-144.5 56.5t-58.5 139.5z" />
<glyph unicode="&#xc6;" horiz-adv-x="1883" d="M98 0q-18 0 -24 11t3 26l816 1376q12 21 37 21h773q31 0 31 -31v-22q0 -30 -31 -30h-657v-589h601q30 0 30 -31v-21q0 -31 -30 -31h-601v-596h675q31 0 31 -31v-21q0 -31 -31 -31h-739q-31 0 -31 31v387h-539l-235 -398q-11 -20 -37 -20h-42zM951 501v831l-492 -831h492z " />
<glyph unicode="&#xc7;" horiz-adv-x="1374" d="M767 -199q-18 0 -36 -2q-22 -3 -31 8q-10 12 3 36l77 133q-145 7 -273.5 67.5t-220.5 158.5t-145.5 232t-53.5 283q0 206 96.5 376t265 267.5t371.5 97.5q239 0 433 -138q25 -18 7 -43l-16 -22q-17 -24 -42 -7q-180 126 -382 126q-176 0 -323 -88t-231 -239t-84 -330 q0 -134 50 -256t134.5 -210t203 -140t250.5 -52q219 0 399 139q25 21 43 -5l15 -23q18 -25 -5 -43q-182 -141 -414 -151l-71 -116q99 -5 160 -62t61 -134q0 -84 -68.5 -140t-169.5 -56q-82 0 -144 38q-25 17 -9 43l4 5q15 25 42 9q52 -30 104 -30q69 0 116 38t47 94t-47 96 t-116 40z" />
<glyph unicode="&#xc8;" horiz-adv-x="1133" d="M188 1403q0 31 31 31h734q31 0 31 -31v-22q0 -30 -31 -30h-670v-589h613q31 0 31 -31v-21q0 -31 -31 -31h-613v-596h689q30 0 30 -31v-21q0 -31 -30 -31h-753q-31 0 -31 31v1372zM670 1589q13 -14 8.5 -26t-24.5 -12h-29q-23 0 -38 18l-240 279q-13 14 -8 26t25 12h30 q23 0 37 -17z" />
<glyph unicode="&#xc9;" horiz-adv-x="1133" d="M188 1403q0 31 31 31h734q31 0 31 -31v-22q0 -30 -31 -30h-670v-589h613q31 0 31 -31v-21q0 -31 -31 -31h-613v-596h689q30 0 30 -31v-21q0 -31 -30 -31h-753q-31 0 -31 31v1372zM500 1589l240 280q14 17 37 17h30q20 0 25 -12t-8 -26l-241 -279q-15 -18 -38 -18h-27 q-20 0 -25.5 12t7.5 26z" />
<glyph unicode="&#xca;" horiz-adv-x="1133" d="M188 1403q0 31 31 31h734q31 0 31 -31v-22q0 -30 -31 -30h-670v-589h613q31 0 31 -31v-21q0 -31 -31 -31h-613v-596h689q30 0 30 -31v-21q0 -31 -30 -31h-753q-31 0 -31 31v1372zM885 1589q13 -15 8 -26.5t-25 -11.5h-23q-24 0 -38 17l-221 247l-221 -247 q-14 -17 -38 -17h-24q-20 0 -24.5 11.5t8.5 26.5l250 281q13 16 37 16h23q25 0 38 -16z" />
<glyph unicode="&#xcb;" horiz-adv-x="1133" d="M188 1403q0 31 31 31h734q31 0 31 -31v-22q0 -30 -31 -30h-670v-589h613q31 0 31 -31v-21q0 -31 -31 -31h-613v-596h689q30 0 30 -31v-21q0 -31 -30 -31h-753q-31 0 -31 31v1372zM329 1704q0 32 22 54.5t55 22.5t55 -22.5t22 -54.5t-22 -54.5t-55 -22.5t-55 22.5 t-22 54.5zM675 1704q0 32 22 54.5t55 22.5t55 -22.5t22 -54.5t-22 -54.5t-55 -22.5t-55 22.5t-22 54.5z" />
<glyph unicode="&#xcc;" horiz-adv-x="571" d="M302 1434q31 0 31 -31v-1372q0 -31 -31 -31h-33q-30 0 -30 31v1372q0 31 30 31h33zM371 1589q13 -14 8 -26t-25 -12h-28q-23 0 -38 18l-241 279q-13 14 -7.5 26t25.5 12h29q23 0 37 -17z" />
<glyph unicode="&#xcd;" horiz-adv-x="571" d="M302 1434q31 0 31 -31v-1372q0 -31 -31 -31h-33q-30 0 -30 31v1372q0 31 30 31h33zM200 1589l240 280q14 17 37 17h30q20 0 25 -12t-8 -26l-241 -279q-15 -18 -38 -18h-27q-20 0 -25.5 12t7.5 26z" />
<glyph unicode="&#xce;" horiz-adv-x="571" d="M302 1434q31 0 31 -31v-1372q0 -31 -31 -31h-33q-30 0 -30 31v1372q0 31 30 31h33zM585 1589q13 -15 8 -26.5t-25 -11.5h-23q-25 0 -38 16l-221 247l-221 -247q-13 -16 -38 -16h-24q-20 0 -24.5 11.5t8.5 26.5l250 280q14 17 38 17h22q24 0 38 -17z" />
<glyph unicode="&#xcf;" horiz-adv-x="571" d="M302 1434q31 0 31 -31v-1372q0 -31 -31 -31h-33q-30 0 -30 31v1372q0 31 30 31h33zM36 1704q0 32 22 54.5t55 22.5t54.5 -22t21.5 -55t-21.5 -55t-54.5 -22t-55 22.5t-22 54.5zM382 1704q0 32 22 54.5t55 22.5t55 -22.5t22 -54.5t-22 -54.5t-55 -22.5t-55 22.5t-22 54.5z " />
<glyph unicode="&#xd0;" horiz-adv-x="1464" d="M698 1434q205 0 360 -90.5t237 -253t82 -373.5q0 -212 -82 -374t-237 -252.5t-360 -90.5h-420q-31 0 -31 31v647h-162q-31 0 -31 31v16q0 31 31 31h162v647q0 31 31 31h420zM341 1350v-594h331q30 0 30 -31v-16q0 -31 -30 -31h-331v-594h357q265 0 424.5 173t159.5 460 t-159.5 460t-424.5 173h-357z" />
<glyph unicode="&#xd1;" horiz-adv-x="1414" d="M188 1403q0 31 31 31h35q24 0 37 -20l843 -1248v1237q0 31 30 31h31q31 0 31 -31v-1372q0 -31 -31 -31h-35q-25 0 -37 19l-842 1249v-1237q0 -31 -31 -31h-31q-31 0 -31 31v1372zM703 1645l-21 22q-26 27 -41 40.5t-37 25.5t-42 12q-68 0 -97 -118q-8 -30 -37 -24l-19 4 q-32 7 -24 37q24 89 65 133t105 44q79 0 159 -85l20 -22q71 -75 117 -75q68 0 97 118q8 31 37 25l20 -4q31 -7 23 -37q-24 -89 -65 -133t-105 -44q-78 0 -155 81z" />
<glyph unicode="&#xd2;" horiz-adv-x="1640" d="M820 59q132 0 250.5 52t203 140t134.5 210t50 256q0 179 -84 330t-231 239t-323 88t-323 -88t-231 -239t-84 -330q0 -134 50 -256t134.5 -210t203 -140t250.5 -52zM820 1458q203 0 371.5 -97.5t265 -267.5t96.5 -376q0 -154 -57 -292t-154.5 -236.5t-233.5 -156 t-288 -57.5t-288 57.5t-233.5 156t-154.5 236.5t-57 292q0 206 96.5 376t265 267.5t371.5 97.5zM893 1589q13 -14 8.5 -26t-24.5 -12h-29q-23 0 -38 18l-240 279q-13 14 -8 26t25 12h30q23 0 37 -17z" />
<glyph unicode="&#xd3;" horiz-adv-x="1640" d="M820 59q132 0 250.5 52t203 140t134.5 210t50 256q0 179 -84 330t-231 239t-323 88t-323 -88t-231 -239t-84 -330q0 -134 50 -256t134.5 -210t203 -140t250.5 -52zM820 1458q203 0 371.5 -97.5t265 -267.5t96.5 -376q0 -154 -57 -292t-154.5 -236.5t-233.5 -156 t-288 -57.5t-288 57.5t-233.5 156t-154.5 236.5t-57 292q0 206 96.5 376t265 267.5t371.5 97.5zM749 1589l240 280q14 17 37 17h30q20 0 25 -12t-8 -26l-241 -279q-15 -18 -38 -18h-27q-20 0 -25.5 12t7.5 26z" />
<glyph unicode="&#xd4;" horiz-adv-x="1640" d="M820 59q132 0 250.5 52t203 140t134.5 210t50 256q0 179 -84 330t-231 239t-323 88t-323 -88t-231 -239t-84 -330q0 -134 50 -256t134.5 -210t203 -140t250.5 -52zM820 1458q203 0 371.5 -97.5t265 -267.5t96.5 -376q0 -154 -57 -292t-154.5 -236.5t-233.5 -156 t-288 -57.5t-288 57.5t-233.5 156t-154.5 236.5t-57 292q0 206 96.5 376t265 267.5t371.5 97.5zM1119 1589q13 -15 8 -26.5t-25 -11.5h-23q-25 0 -38 16l-221 247l-221 -247q-13 -16 -38 -16h-24q-20 0 -24.5 11.5t8.5 26.5l250 280q14 17 38 17h22q24 0 38 -17z" />
<glyph unicode="&#xd5;" horiz-adv-x="1640" d="M820 59q132 0 250.5 52t203 140t134.5 210t50 256q0 179 -84 330t-231 239t-323 88t-323 -88t-231 -239t-84 -330q0 -134 50 -256t134.5 -210t203 -140t250.5 -52zM820 1458q203 0 371.5 -97.5t265 -267.5t96.5 -376q0 -154 -57 -292t-154.5 -236.5t-233.5 -156 t-288 -57.5t-288 57.5t-233.5 156t-154.5 236.5t-57 292q0 206 96.5 376t265 267.5t371.5 97.5zM817 1645l-22 22q-26 27 -41 40.5t-37 25.5t-42 12q-68 0 -97 -118q-8 -30 -37 -24l-19 4q-32 7 -24 37q24 89 65 133t105 44q79 0 159 -85l20 -22q70 -74 117 -74q68 0 97 117 q8 31 37 25l20 -4q31 -7 23 -37q-24 -89 -65 -133t-105 -44q-77 0 -154 81z" />
<glyph unicode="&#xd6;" horiz-adv-x="1640" d="M820 59q132 0 250.5 52t203 140t134.5 210t50 256q0 179 -84 330t-231 239t-323 88t-323 -88t-231 -239t-84 -330q0 -134 50 -256t134.5 -210t203 -140t250.5 -52zM820 1458q203 0 371.5 -97.5t265 -267.5t96.5 -376q0 -154 -57 -292t-154.5 -236.5t-233.5 -156 t-288 -57.5t-288 57.5t-233.5 156t-154.5 236.5t-57 292q0 206 96.5 376t265 267.5t371.5 97.5zM570 1704q0 32 22 54.5t55 22.5t55 -22.5t22 -54.5t-22 -54.5t-55 -22.5t-55 22.5t-22 54.5zM916 1704q0 32 22 54.5t55 22.5t55 -22.5t22 -54.5t-22 -54.5t-55 -22.5t-55 22.5 t-22 54.5z" />
<glyph unicode="&#xd7;" horiz-adv-x="1150" d="M186 298q-20 22 0 43l326 333l-325 333q-20 21 0 43l20 20q21 22 43 0l325 -333l326 333q21 23 43 0l20 -20q20 -22 0 -43l-326 -333l326 -333q20 -22 0 -43l-20 -20q-21 -22 -43 0l-326 331l-326 -331q-22 -22 -43 0z" />
<glyph unicode="&#xd8;" horiz-adv-x="1640" d="M820 1458q233 0 419 -129l116 148q15 18 38 18h26q19 0 24.5 -11.5t-5.5 -26.5l-138 -175q119 -102 186 -249t67 -316q0 -154 -57 -292t-154.5 -236.5t-233.5 -156t-288 -57.5q-244 0 -437 142l-126 -160q-14 -18 -38 -18h-26q-20 0 -25.5 11t6.5 26l150 190 q-112 103 -174.5 245t-62.5 306q0 206 96.5 376t265 267.5t371.5 97.5zM820 59q132 0 250.5 52t203 140t134.5 210t50 256q0 146 -57 274t-158 219l-805 -1023q166 -128 382 -128zM182 717q0 -139 52.5 -262.5t145.5 -215.5l804 1021q-159 114 -364 114q-176 0 -323 -88 t-231 -239t-84 -330z" />
<glyph unicode="&#xd9;" horiz-adv-x="1339" d="M1169 486q0 -227 -139.5 -368t-359.5 -141t-360 141t-140 368v917q0 31 31 31h32q31 0 31 -31v-924q0 -185 114 -301.5t292 -116.5t291.5 116.5t113.5 301.5v924q0 31 31 31h33q30 0 30 -31v-917zM740 1589q13 -14 8.5 -26t-24.5 -12h-29q-23 0 -38 18l-240 279 q-13 14 -8 26t25 12h30q23 0 37 -17z" />
<glyph unicode="&#xda;" horiz-adv-x="1339" d="M1169 486q0 -227 -139.5 -368t-359.5 -141t-360 141t-140 368v917q0 31 31 31h32q31 0 31 -31v-924q0 -185 114 -301.5t292 -116.5t291.5 116.5t113.5 301.5v924q0 31 31 31h33q30 0 30 -31v-917zM600 1589l240 280q14 17 37 17h30q20 0 25 -12t-8 -26l-241 -279 q-15 -18 -38 -18h-27q-20 0 -25.5 12t7.5 26z" />
<glyph unicode="&#xdb;" horiz-adv-x="1339" d="M1169 486q0 -227 -139.5 -368t-359.5 -141t-360 141t-140 368v917q0 31 31 31h32q31 0 31 -31v-924q0 -185 114 -301.5t292 -116.5t291.5 116.5t113.5 301.5v924q0 31 31 31h33q30 0 30 -31v-917zM969 1589q13 -15 8 -26.5t-25 -11.5h-23q-25 0 -38 16l-221 247 l-221 -247q-13 -16 -38 -16h-24q-20 0 -24.5 11.5t8.5 26.5l250 280q14 17 38 17h22q24 0 38 -17z" />
<glyph unicode="&#xdc;" horiz-adv-x="1339" d="M1169 486q0 -227 -139.5 -368t-359.5 -141t-360 141t-140 368v917q0 31 31 31h32q31 0 31 -31v-924q0 -185 114 -301.5t292 -116.5t291.5 116.5t113.5 301.5v924q0 31 31 31h33q30 0 30 -31v-917zM420 1704q0 32 22 54.5t55 22.5t54.5 -22t21.5 -55t-21.5 -55t-54.5 -22 t-55 22.5t-22 54.5zM766 1704q0 32 22 54.5t55 22.5t55 -22.5t22 -54.5t-22 -54.5t-55 -22.5t-55 22.5t-22 54.5z" />
<glyph unicode="&#xdd;" horiz-adv-x="1304" d="M652 682l469 731q15 21 37 21h40q19 0 25 -11t-4 -26l-520 -809v-557q0 -31 -30 -31h-33q-31 0 -31 31v557l-519 809q-10 15 -4.5 26t24.5 11h40q22 0 37 -21zM590 1589l240 280q14 17 37 17h30q20 0 25 -12t-8 -26l-241 -279q-15 -18 -38 -18h-27q-20 0 -25.5 12t7.5 26 z" />
<glyph unicode="&#xde;" horiz-adv-x="1165" d="M283 291v-260q0 -31 -31 -31h-33q-31 0 -31 31v1372q0 31 31 31h33q31 0 31 -31v-260h313q220 0 353 -116.5t133 -309.5t-133 -309.5t-353 -116.5h-313zM987 717q0 156 -107 249.5t-286 93.5h-311v-686h311q179 0 286 93.5t107 249.5z" />
<glyph unicode="&#xdf;" horiz-adv-x="1221" d="M170 1056q0 172 115 287t287 115q164 0 277 -106t113 -251q0 -121 -83.5 -209t-202.5 -120q191 -25 314 -136.5t123 -269.5q0 -165 -133.5 -278t-333.5 -113q-127 0 -242 67q-22 13 -13 40l8 24q11 33 41 14q101 -62 206 -62q154 0 263 90t109 218q0 142 -131 245.5 t-361 111.5q-30 2 -30 32v20q0 29 30 31q144 11 242 94.5t98 197.5q0 112 -85 194.5t-209 82.5q-132 0 -220 -90.5t-88 -225.5v-1028q0 -31 -31 -31h-32q-31 0 -31 31v1025z" />
<glyph unicode="&#xe0;" d="M1042 762q-68 113 -172 176.5t-234 63.5q-128 0 -234.5 -65t-166 -173.5t-59.5 -233.5t59.5 -233.5t166 -173.5t234.5 -65q130 0 234 64t172 177v463zM626 1085q127 0 235.5 -54.5t180.5 -151.5v151q0 31 31 31h31q31 0 31 -31v-999q0 -31 -31 -31h-31q-31 0 -31 31v151 q-73 -97 -181 -152t-235 -55q-153 0 -278.5 76.5t-195 203.5t-69.5 275t69.5 275t195 203.5t278.5 76.5zM717 1257q13 -14 8.5 -26t-24.5 -12h-29q-23 0 -38 18l-240 279q-13 14 -8 26t25 12h30q23 0 37 -17z" />
<glyph unicode="&#xe1;" d="M1042 762q-68 113 -172 176.5t-234 63.5q-128 0 -234.5 -65t-166 -173.5t-59.5 -233.5t59.5 -233.5t166 -173.5t234.5 -65q130 0 234 64t172 177v463zM626 1085q127 0 235.5 -54.5t180.5 -151.5v151q0 31 31 31h31q31 0 31 -31v-999q0 -31 -31 -31h-31q-31 0 -31 31v151 q-73 -97 -181 -152t-235 -55q-153 0 -278.5 76.5t-195 203.5t-69.5 275t69.5 275t195 203.5t278.5 76.5zM532 1257l240 280q14 17 37 17h30q20 0 25 -12t-8 -26l-241 -279q-15 -18 -38 -18h-27q-20 0 -25.5 12t7.5 26z" />
<glyph unicode="&#xe2;" d="M1042 762q-68 113 -172 176.5t-234 63.5q-128 0 -234.5 -65t-166 -173.5t-59.5 -233.5t59.5 -233.5t166 -173.5t234.5 -65q130 0 234 64t172 177v463zM626 1085q127 0 235.5 -54.5t180.5 -151.5v151q0 31 31 31h31q31 0 31 -31v-999q0 -31 -31 -31h-31q-31 0 -31 31v151 q-73 -97 -181 -152t-235 -55q-153 0 -278.5 76.5t-195 203.5t-69.5 275t69.5 275t195 203.5t278.5 76.5zM928 1258q13 -15 8 -26.5t-25 -11.5h-23q-25 0 -38 16l-221 247l-221 -247q-13 -16 -38 -16h-24q-20 0 -24.5 11.5t8.5 26.5l250 280q14 17 38 17h22q24 0 38 -17z" />
<glyph unicode="&#xe3;" d="M1042 762q-68 113 -172 176.5t-234 63.5q-128 0 -234.5 -65t-166 -173.5t-59.5 -233.5t59.5 -233.5t166 -173.5t234.5 -65q130 0 234 64t172 177v463zM626 1085q127 0 235.5 -54.5t180.5 -151.5v151q0 31 31 31h31q31 0 31 -31v-999q0 -31 -31 -31h-31q-31 0 -31 31v151 q-73 -97 -181 -152t-235 -55q-153 0 -278.5 76.5t-195 203.5t-69.5 275t69.5 275t195 203.5t278.5 76.5zM626 1313l-22 22q-26 27 -41 40.5t-37 25.5t-42 12q-68 0 -97 -118q-8 -30 -37 -24l-19 4q-32 7 -24 37q24 89 65 133t105 44q79 0 159 -85l20 -22q70 -74 117 -74 q68 0 97 117q8 31 37 25l20 -4q31 -7 23 -37q-24 -89 -65 -133t-105 -44q-77 0 -154 81z" />
<glyph unicode="&#xe4;" d="M1042 762q-68 113 -172 176.5t-234 63.5q-128 0 -234.5 -65t-166 -173.5t-59.5 -233.5t59.5 -233.5t166 -173.5t234.5 -65q130 0 234 64t172 177v463zM626 1085q127 0 235.5 -54.5t180.5 -151.5v151q0 31 31 31h31q31 0 31 -31v-999q0 -31 -31 -31h-31q-31 0 -31 31v151 q-73 -97 -181 -152t-235 -55q-153 0 -278.5 76.5t-195 203.5t-69.5 275t69.5 275t195 203.5t278.5 76.5zM375 1372q0 32 22 54.5t55 22.5t54.5 -22t21.5 -55t-21.5 -55t-54.5 -22t-55 22.5t-22 54.5zM721 1372q0 32 22 54.5t55 22.5t54.5 -22t21.5 -55t-21.5 -55t-54.5 -22 t-55 22.5t-22 54.5z" />
<glyph unicode="&#xe5;" d="M1042 762q-68 113 -172 176.5t-234 63.5q-128 0 -234.5 -65t-166 -173.5t-59.5 -233.5t59.5 -233.5t166 -173.5t234.5 -65q130 0 234 64t172 177v463zM626 1085q127 0 235.5 -54.5t180.5 -151.5v151q0 31 31 31h31q31 0 31 -31v-999q0 -31 -31 -31h-31q-31 0 -31 31v151 q-73 -97 -181 -152t-235 -55q-153 0 -278.5 76.5t-195 203.5t-69.5 275t69.5 275t195 203.5t278.5 76.5zM492 1394q0 -56 38 -94t94 -38t94 38t38 94t-38 94t-94 38t-94 -38t-38 -94zM421 1394q0 83 58.5 139t144.5 56t144.5 -56t58.5 -139t-58.5 -139.5t-144.5 -56.5 t-144.5 56.5t-58.5 139.5z" />
<glyph unicode="&#xe6;" horiz-adv-x="2052" d="M1032 507q7 -188 131.5 -319.5t312.5 -131.5q191 0 336 159q21 24 43 2l20 -18q23 -21 3 -43q-76 -85 -179 -133t-221 -48q-158 0 -281.5 78.5t-187.5 208.5q-66 -134 -187.5 -210.5t-269.5 -76.5q-129 0 -237 44t-170 120.5t-62 168.5q0 138 136 233.5t330 95.5 q106 0 215.5 -32.5t181.5 -85.5q-1 9 -1 29q0 33 5 73q-12 124 -69 212.5t-141.5 130t-188.5 41.5q-180 0 -325 -113q-27 -21 -42 9l-10 20q-13 27 9 43q166 121 369 121q156 0 279 -81.5t168 -230.5q60 140 184 226t281 86q145 0 261 -70.5t180 -190.5t64 -264q0 -7 -2 -25 q-3 -28 -33 -28h-902zM555 56q134 0 246.5 75.5t171.5 209.5q-18 53 -24 101q-72 57 -178.5 88t-210.5 31q-162 0 -273.5 -74t-111.5 -179t110.5 -178.5t269.5 -73.5zM1464 1005q-168 0 -289.5 -122.5t-139.5 -296.5h838q-11 182 -126 300.5t-283 118.5z" />
<glyph unicode="&#xe7;" horiz-adv-x="1111" d="M580 -199q-14 0 -36 -2q-22 -1 -32 10q-9 11 5 35l77 133q-146 11 -263.5 88.5t-182.5 200t-65 264.5q0 149 71 276t199 203t283 76q208 0 358 -131q22 -19 6 -42l-14 -22q-18 -27 -43 -5q-133 117 -307 117q-128 0 -234.5 -65t-166 -173.5t-59.5 -233.5t59.5 -233.5 t166 -173.5t234.5 -65q184 0 320 131q22 22 43 -2l18 -20q19 -24 -2 -43q-141 -136 -344 -148l-71 -116q99 -5 159.5 -62t60.5 -134q0 -84 -68 -140t-169 -56q-82 0 -145 38q-25 16 -9 42l4 7q15 24 42 8q52 -30 105 -30q69 0 115.5 38t46.5 94t-46.5 96t-115.5 40z" />
<glyph unicode="&#xe8;" horiz-adv-x="1226" d="M177 507q4 -122 62.5 -225t163 -164.5t233.5 -61.5q206 0 351 159q21 24 43 2l20 -18q23 -21 3 -43q-76 -85 -184 -133t-232 -48q-160 0 -288 75.5t-197 202t-69 277.5q0 150 69.5 277t194 202.5t277.5 75.5q149 0 268.5 -70.5t185.5 -190.5t66 -264q0 -16 -1 -24 q-3 -29 -33 -29h-933zM624 1005q-174 0 -300 -122.5t-144 -296.5h869q-12 182 -131 300.5t-294 118.5zM694 1257q13 -14 8.5 -26t-24.5 -12h-29q-23 0 -38 18l-240 279q-13 14 -8 26t25 12h30q23 0 37 -17z" />
<glyph unicode="&#xe9;" horiz-adv-x="1226" d="M177 507q4 -122 62.5 -225t163 -164.5t233.5 -61.5q206 0 351 159q21 24 43 2l20 -18q23 -21 3 -43q-76 -85 -184 -133t-232 -48q-160 0 -288 75.5t-197 202t-69 277.5q0 150 69.5 277t194 202.5t277.5 75.5q149 0 268.5 -70.5t185.5 -190.5t66 -264q0 -16 -1 -24 q-3 -29 -33 -29h-933zM624 1005q-174 0 -300 -122.5t-144 -296.5h869q-12 182 -131 300.5t-294 118.5zM533 1257l240 280q14 17 37 17h30q20 0 25 -12t-8 -26l-241 -279q-15 -18 -38 -18h-27q-20 0 -25.5 12t7.5 26z" />
<glyph unicode="&#xea;" horiz-adv-x="1226" d="M177 507q4 -122 62.5 -225t163 -164.5t233.5 -61.5q206 0 351 159q21 24 43 2l20 -18q23 -21 3 -43q-76 -85 -184 -133t-232 -48q-160 0 -288 75.5t-197 202t-69 277.5q0 150 69.5 277t194 202.5t277.5 75.5q149 0 268.5 -70.5t185.5 -190.5t66 -264q0 -16 -1 -24 q-3 -29 -33 -29h-933zM624 1005q-174 0 -300 -122.5t-144 -296.5h869q-12 182 -131 300.5t-294 118.5zM912 1257q13 -15 8.5 -26t-24.5 -11h-24q-24 0 -37 16l-222 247l-221 -247q-13 -16 -38 -16h-23q-20 0 -25 11t8 26l250 281q13 16 38 16h23q25 0 38 -16z" />
<glyph unicode="&#xeb;" horiz-adv-x="1226" d="M177 507q4 -122 62.5 -225t163 -164.5t233.5 -61.5q206 0 351 159q21 24 43 2l20 -18q23 -21 3 -43q-76 -85 -184 -133t-232 -48q-160 0 -288 75.5t-197 202t-69 277.5q0 150 69.5 277t194 202.5t277.5 75.5q149 0 268.5 -70.5t185.5 -190.5t66 -264q0 -16 -1 -24 q-3 -29 -33 -29h-933zM624 1005q-174 0 -300 -122.5t-144 -296.5h869q-12 182 -131 300.5t-294 118.5zM364 1372q0 32 22 54.5t55 22.5t55 -22.5t22 -54.5t-22 -54.5t-55 -22.5t-55 22.5t-22 54.5zM710 1372q0 32 22 54.5t55 22.5t55 -22.5t22 -54.5t-22 -54.5t-55 -22.5 t-55 22.5t-22 54.5z" />
<glyph unicode="&#xec;" horiz-adv-x="523" d="M215 1030q0 31 31 31h30q31 0 31 -31v-999q0 -31 -31 -31h-30q-31 0 -31 31v999zM343 1257q13 -14 8.5 -26t-24.5 -12h-29q-23 0 -38 18l-240 279q-13 14 -8 26t25 12h30q23 0 37 -17z" />
<glyph unicode="&#xed;" horiz-adv-x="523" d="M215 1030q0 31 31 31h30q31 0 31 -31v-999q0 -31 -31 -31h-30q-31 0 -31 31v999zM180 1257l240 280q14 17 37 17h30q20 0 25 -12t-8 -26l-241 -279q-15 -18 -38 -18h-27q-20 0 -25.5 12t7.5 26z" />
<glyph unicode="&#xee;" horiz-adv-x="523" d="M215 1030q0 31 31 31h30q31 0 31 -31v-999q0 -31 -31 -31h-30q-31 0 -31 31v999zM560 1258q13 -15 8 -26.5t-25 -11.5h-23q-25 0 -38 16l-221 247l-221 -247q-13 -16 -38 -16h-24q-20 0 -24.5 11.5t8.5 26.5l250 280q14 17 38 17h22q24 0 38 -17z" />
<glyph unicode="&#xef;" horiz-adv-x="523" d="M215 1030q0 31 31 31h30q31 0 31 -31v-999q0 -31 -31 -31h-30q-31 0 -31 31v999zM12 1372q0 32 22 54.5t55 22.5t55 -22.5t22 -54.5t-22 -54.5t-55 -22.5t-55 22.5t-22 54.5zM358 1372q0 32 22 54.5t55 22.5t55 -22.5t22 -54.5t-22 -54.5t-55 -22.5t-55 22.5t-22 54.5z " />
<glyph unicode="&#xf0;" horiz-adv-x="1232" d="M269 1118l-4 8q-13 27 15 41l299 143q-77 53 -205 115q-17 7 -18 19.5t13 22.5l17 14q19 15 42 4q129 -59 236 -134l222 105q28 14 41 -14l4 -8q13 -27 -16 -41l-189 -90q191 -142 302.5 -359t111.5 -463q0 -139 -70 -255.5t-192 -183.5t-267 -67q-221 0 -374.5 147 t-153.5 359q0 138 70 254t189.5 183t260.5 67q127 0 236.5 -59.5t166.5 -160.5q-103 308 -361 499l-335 -160q-28 -14 -41 14zM611 906q-182 0 -308.5 -123.5t-126.5 -300.5t126.5 -300.5t308.5 -123.5t309.5 123.5t127.5 300.5t-127.5 300.5t-309.5 123.5z" />
<glyph unicode="&#xf1;" horiz-adv-x="1211" d="M254 31q0 -31 -31 -31h-30q-31 0 -31 31v999q0 31 31 31h30q31 0 31 -31v-211q153 266 399 266q179 0 297 -118.5t118 -295.5v-640q0 -31 -31 -31h-30q-31 0 -31 31v634q0 143 -95.5 240t-241.5 97q-227 0 -385 -300v-671zM611 1313l-21 22q-26 27 -41 40.5t-37 25.5 t-42 12q-68 0 -97 -118q-8 -30 -37 -24l-20 4q-31 7 -23 37q24 89 65 133t105 44q79 0 159 -85l20 -22q70 -74 117 -74q68 0 97 117q8 31 37 25l19 -4q32 -7 24 -37q-24 -89 -65 -133t-105 -44q-78 0 -155 81z" />
<glyph unicode="&#xf2;" horiz-adv-x="1271" d="M636 58q128 0 234.5 65t166 173.5t59.5 233.5t-59.5 233.5t-166 173.5t-234.5 65t-234.5 -65t-166 -173.5t-59.5 -233.5t59.5 -233.5t166 -173.5t234.5 -65zM636 1085q155 0 283 -76t199 -203t71 -276t-71 -276t-199 -203t-283 -76t-283 76t-199 203t-71 276t71 276 t199 203t283 76zM720 1257q13 -14 8.5 -26t-24.5 -12h-29q-23 0 -38 18l-240 279q-13 14 -8 26t25 12h30q23 0 37 -17z" />
<glyph unicode="&#xf3;" horiz-adv-x="1271" d="M636 58q128 0 234.5 65t166 173.5t59.5 233.5t-59.5 233.5t-166 173.5t-234.5 65t-234.5 -65t-166 -173.5t-59.5 -233.5t59.5 -233.5t166 -173.5t234.5 -65zM636 1085q155 0 283 -76t199 -203t71 -276t-71 -276t-199 -203t-283 -76t-283 76t-199 203t-71 276t71 276 t199 203t283 76zM555 1257l240 280q14 17 37 17h30q20 0 25 -12t-8 -26l-241 -279q-15 -18 -38 -18h-27q-20 0 -25.5 12t7.5 26z" />
<glyph unicode="&#xf4;" horiz-adv-x="1271" d="M636 58q128 0 234.5 65t166 173.5t59.5 233.5t-59.5 233.5t-166 173.5t-234.5 65t-234.5 -65t-166 -173.5t-59.5 -233.5t59.5 -233.5t166 -173.5t234.5 -65zM636 1085q155 0 283 -76t199 -203t71 -276t-71 -276t-199 -203t-283 -76t-283 76t-199 203t-71 276t71 276 t199 203t283 76zM935 1258q13 -15 8 -26.5t-25 -11.5h-23q-25 0 -38 16l-221 247l-221 -247q-13 -16 -38 -16h-24q-20 0 -24.5 11.5t8.5 26.5l250 280q14 17 38 17h22q24 0 38 -17z" />
<glyph unicode="&#xf5;" horiz-adv-x="1271" d="M636 58q128 0 234.5 65t166 173.5t59.5 233.5t-59.5 233.5t-166 173.5t-234.5 65t-234.5 -65t-166 -173.5t-59.5 -233.5t59.5 -233.5t166 -173.5t234.5 -65zM636 1085q155 0 283 -76t199 -203t71 -276t-71 -276t-199 -203t-283 -76t-283 76t-199 203t-71 276t71 276 t199 203t283 76zM633 1313l-22 22q-26 27 -41 40.5t-37 25.5t-42 12q-68 0 -97 -118q-8 -30 -37 -24l-19 4q-32 7 -24 37q24 89 65 133t105 44q79 0 159 -85l20 -22q70 -74 117 -74q68 0 97 117q8 31 37 25l20 -4q31 -7 23 -37q-24 -89 -65 -133t-105 -44q-77 0 -154 81z " />
<glyph unicode="&#xf6;" horiz-adv-x="1271" d="M636 58q128 0 234.5 65t166 173.5t59.5 233.5t-59.5 233.5t-166 173.5t-234.5 65t-234.5 -65t-166 -173.5t-59.5 -233.5t59.5 -233.5t166 -173.5t234.5 -65zM636 1085q155 0 283 -76t199 -203t71 -276t-71 -276t-199 -203t-283 -76t-283 76t-199 203t-71 276t71 276 t199 203t283 76zM386 1372q0 32 22 54.5t55 22.5t55 -22.5t22 -54.5t-22 -54.5t-55 -22.5t-55 22.5t-22 54.5zM732 1372q0 32 22 54.5t55 22.5t55 -22.5t22 -54.5t-22 -54.5t-55 -22.5t-55 22.5t-22 54.5z" />
<glyph unicode="&#xf7;" horiz-adv-x="1150" d="M151 639q-31 0 -31 31v19q0 31 31 31h849q31 0 31 -31v-19q0 -31 -31 -31h-849zM495 1067q0 35 23 58t57 23q35 0 58 -23t23 -58t-23 -58t-58 -23q-34 0 -57 23t-23 58zM495 292q0 35 23 58t57 23q35 0 58 -23.5t23 -57.5t-23 -57.5t-58 -23.5q-34 0 -57 23t-23 58z" />
<glyph unicode="&#xf8;" horiz-adv-x="1271" d="M636 1085q179 0 319 -100l98 120q13 17 37 17h24q19 0 24.5 -11.5t-6.5 -26.5l-118 -146q83 -77 129 -183.5t46 -224.5q0 -149 -71 -276t-199 -203t-283 -76q-179 0 -322 101l-96 -119q-14 -18 -38 -18h-23q-19 0 -24.5 11t6.5 26l119 147q-83 77 -129 183t-46 224 q0 149 71 276t199 203t283 76zM636 58q128 0 234.5 65t166 173.5t59.5 233.5q0 96 -37 184t-103 154l-586 -724q119 -86 266 -86zM176 530q0 -197 138 -337l586 723q-118 86 -264 86q-128 0 -234.5 -65t-166 -173.5t-59.5 -233.5z" />
<glyph unicode="&#xf9;" horiz-adv-x="1211" d="M957 1030q0 31 31 31h31q31 0 31 -31v-999q0 -31 -31 -31h-31q-31 0 -31 31v210q-154 -266 -398 -266q-179 0 -297.5 118.5t-118.5 296.5v640q0 31 31 31h31q31 0 31 -31v-634q0 -143 95.5 -240.5t241.5 -97.5q224 0 384 299v673zM659 1257q13 -14 8.5 -26t-24.5 -12h-29 q-23 0 -38 18l-240 279q-13 14 -8 26t25 12h30q23 0 37 -17z" />
<glyph unicode="&#xfa;" horiz-adv-x="1211" d="M957 1030q0 31 31 31h31q31 0 31 -31v-999q0 -31 -31 -31h-31q-31 0 -31 31v210q-154 -266 -398 -266q-179 0 -297.5 118.5t-118.5 296.5v640q0 31 31 31h31q31 0 31 -31v-634q0 -143 95.5 -240.5t241.5 -97.5q224 0 384 299v673zM515 1257l240 280q14 17 37 17h30 q20 0 25 -12t-8 -26l-241 -279q-15 -18 -38 -18h-27q-20 0 -25.5 12t7.5 26z" />
<glyph unicode="&#xfb;" horiz-adv-x="1211" d="M957 1030q0 31 31 31h31q31 0 31 -31v-999q0 -31 -31 -31h-31q-31 0 -31 31v210q-154 -266 -398 -266q-179 0 -297.5 118.5t-118.5 296.5v640q0 31 31 31h31q31 0 31 -31v-634q0 -143 95.5 -240.5t241.5 -97.5q224 0 384 299v673zM895 1258q13 -15 8 -26.5t-25 -11.5h-23 q-25 0 -38 16l-221 247l-221 -247q-13 -16 -38 -16h-24q-20 0 -24.5 11.5t8.5 26.5l250 280q14 17 38 17h22q24 0 38 -17z" />
<glyph unicode="&#xfc;" horiz-adv-x="1211" d="M957 1030q0 31 31 31h31q31 0 31 -31v-999q0 -31 -31 -31h-31q-31 0 -31 31v210q-154 -266 -398 -266q-179 0 -297.5 118.5t-118.5 296.5v640q0 31 31 31h31q31 0 31 -31v-634q0 -143 95.5 -240.5t241.5 -97.5q224 0 384 299v673zM346 1372q0 32 22 54.5t55 22.5 t55 -22.5t22 -54.5t-22 -54.5t-55 -22.5t-55 22.5t-22 54.5zM692 1372q0 32 22 54.5t55 22.5t55 -22.5t22 -54.5t-22 -54.5t-55 -22.5t-55 22.5t-22 54.5z" />
<glyph unicode="&#xfd;" horiz-adv-x="1062" d="M487 13l-430 1012q-7 16 0 26t24 10h36q25 0 36 -24l383 -904l374 904q9 24 36 24h36q17 0 24.5 -10t0.5 -26l-613 -1477q-9 -23 -36 -23h-35q-17 0 -24 10t0 26zM463 1257l240 280q14 17 37 17h30q20 0 25 -12t-8 -26l-241 -279q-15 -18 -38 -18h-27q-20 0 -25.5 12 t7.5 26z" />
<glyph unicode="&#xfe;" d="M254 299q68 -113 172 -177t234 -64q128 0 234.5 65t166 173.5t59.5 233.5t-59.5 233.5t-166 173.5t-234.5 65q-130 0 -234 -63.5t-172 -176.5v-463zM671 1085q153 0 278 -76.5t194.5 -203.5t69.5 -275t-69.5 -275t-194.5 -203.5t-278 -76.5q-127 0 -236 55t-181 152v-626 q0 -31 -31 -31h-30q-31 0 -31 31v1908q0 31 31 31h30q31 0 31 -31v-585q72 97 181 151.5t236 54.5z" />
<glyph unicode="&#xff;" horiz-adv-x="1062" d="M487 13l-430 1012q-7 16 0 26t24 10h36q25 0 36 -24l383 -904l374 904q9 24 36 24h36q17 0 24.5 -10t0.5 -26l-613 -1477q-9 -23 -36 -23h-35q-17 0 -24 10t0 26zM282 1372q0 32 22 54.5t55 22.5t55 -22.5t22 -54.5t-22 -54.5t-55 -22.5t-55 22.5t-22 54.5zM628 1372 q0 32 22 54.5t55 22.5t55 -22.5t22 -54.5t-22 -54.5t-55 -22.5t-55 22.5t-22 54.5z" />
<glyph unicode="&#x152;" horiz-adv-x="1818" d="M887 84v1266h-9q-144 0 -273 -49.5t-221.5 -133.5t-147 -201.5t-54.5 -248.5q0 -175 92 -320.5t252 -229t352 -83.5h9zM1657 0h-779q-218 0 -399.5 94.5t-286.5 259t-105 363.5q0 198 105 363t286.5 259.5t399.5 94.5h760q31 0 31 -31v-22q0 -30 -31 -30h-657v-589h601 q31 0 31 -31v-21q0 -31 -31 -31h-601v-596h676q31 0 31 -31v-21q0 -31 -31 -31z" />
<glyph unicode="&#x153;" horiz-adv-x="2160" d="M611 1085q164 0 295.5 -97.5t187.5 -253.5q54 155 183 253t296 98q145 0 261 -70.5t180 -190.5t64 -264q0 -7 -2 -25q-3 -28 -33 -28h-902q7 -189 131 -320t312 -131q192 0 337 159q21 24 43 2l19 -18q24 -22 4 -43q-76 -85 -179.5 -133t-221.5 -48q-176 0 -307.5 97 t-185.5 253q-55 -156 -186.5 -253t-295.5 -97q-146 0 -267.5 74t-191 201.5t-69.5 279.5t69.5 279.5t191 201.5t267.5 74zM611 58q183 0 309.5 137t126.5 335q0 197 -126.5 334.5t-309.5 137.5q-120 0 -220 -62.5t-157.5 -171t-57.5 -238.5q0 -198 126 -335t309 -137z M1573 1005q-168 0 -289.5 -122.5t-139.5 -296.5h837q-12 182 -126 300.5t-282 118.5z" />
<glyph unicode="&#x178;" horiz-adv-x="1304" d="M652 682l469 731q15 21 37 21h40q19 0 25 -11t-4 -26l-520 -809v-557q0 -31 -30 -31h-33q-31 0 -31 31v557l-519 809q-10 15 -4.5 26t24.5 11h40q22 0 37 -21zM402 1704q0 32 22 54.5t55 22.5t55 -22.5t22 -54.5t-22 -54.5t-55 -22.5t-55 22.5t-22 54.5zM748 1704 q0 32 22 54.5t55 22.5t55 -22.5t22 -54.5t-22 -54.5t-55 -22.5t-55 22.5t-22 54.5z" />
<glyph unicode="&#x2c6;" horiz-adv-x="835" d="M717 1190q13 -15 8 -26.5t-25 -11.5h-23q-25 0 -38 16l-221 247l-221 -247q-13 -16 -38 -16h-24q-20 0 -24.5 11.5t8.5 26.5l250 280q14 17 38 17h22q24 0 38 -17z" />
<glyph unicode="&#x2dc;" horiz-adv-x="835" d="M415 1266l-22 22q-26 27 -41 40.5t-37 25.5t-42 12q-68 0 -97 -118q-8 -30 -37 -24l-19 4q-32 7 -24 37q24 89 65 133t105 44q79 0 159 -85l20 -22q70 -74 117 -74q68 0 97 117q8 31 37 25l20 -4q31 -7 23 -37q-24 -89 -65 -133t-105 -44q-77 0 -154 81z" />
<glyph unicode="&#x2000;" horiz-adv-x="960" />
<glyph unicode="&#x2001;" horiz-adv-x="1921" />
<glyph unicode="&#x2002;" horiz-adv-x="960" />
<glyph unicode="&#x2003;" horiz-adv-x="1921" />
<glyph unicode="&#x2004;" horiz-adv-x="640" />
<glyph unicode="&#x2005;" horiz-adv-x="480" />
<glyph unicode="&#x2006;" horiz-adv-x="320" />
<glyph unicode="&#x2007;" horiz-adv-x="320" />
<glyph unicode="&#x2008;" horiz-adv-x="240" />
<glyph unicode="&#x2009;" horiz-adv-x="384" />
<glyph unicode="&#x200a;" horiz-adv-x="106" />
<glyph unicode="&#x2010;" horiz-adv-x="806" d="M148 637q-30 0 -30 31v24q0 31 30 31h510q31 0 31 -31v-24q0 -31 -31 -31h-510z" />
<glyph unicode="&#x2011;" horiz-adv-x="806" d="M148 637q-30 0 -30 31v24q0 31 30 31h510q31 0 31 -31v-24q0 -31 -31 -31h-510z" />
<glyph unicode="&#x2012;" horiz-adv-x="806" d="M148 637q-30 0 -30 31v24q0 31 30 31h510q31 0 31 -31v-24q0 -31 -31 -31h-510z" />
<glyph unicode="&#x2013;" horiz-adv-x="1024" d="M31 637q-31 0 -31 31v24q0 31 31 31h962q31 0 31 -31v-24q0 -31 -31 -31h-962z" />
<glyph unicode="&#x2014;" horiz-adv-x="2048" d="M31 637q-31 0 -31 31v24q0 31 31 31h1986q31 0 31 -31v-24q0 -31 -31 -31h-1986z" />
<glyph unicode="&#x2018;" horiz-adv-x="595" d="M379 1241q0 -35 -23.5 -58t-57.5 -23t-57.5 23t-23.5 58q0 17 7 35l105 238q11 24 36 24h7q17 0 23.5 -10t-0.5 -26l-80 -182q29 -6 46.5 -27.5t17.5 -51.5z" />
<glyph unicode="&#x2019;" horiz-adv-x="595" d="M217 1457q0 35 23.5 58t57.5 23t57.5 -23t23.5 -58q0 -17 -7 -35l-105 -238q-11 -24 -36 -24h-7q-17 0 -23.5 10t0.5 26l80 182q-29 6 -46.5 27.5t-17.5 51.5z" />
<glyph unicode="&#x201a;" horiz-adv-x="595" d="M217 56q0 34 23.5 57.5t57.5 23.5t57.5 -23.5t23.5 -57.5q0 -16 -7 -34l-105 -239q-11 -24 -36 -24h-7q-17 0 -23.5 9.5t0.5 26.5l80 182q-29 6 -46.5 27.5t-17.5 51.5z" />
<glyph unicode="&#x201c;" horiz-adv-x="868" d="M651 1241q0 -35 -23.5 -58t-57.5 -23t-57.5 23t-23.5 58q0 15 8 35l104 238q11 24 36 24h7q17 0 24 -10t0 -26l-80 -182q29 -6 46 -27.5t17 -51.5zM379 1241q0 -35 -23.5 -58t-57.5 -23t-57.5 23t-23.5 58q0 17 7 35l105 238q11 24 36 24h7q17 0 23.5 -10t-0.5 -26 l-80 -182q29 -6 46.5 -27.5t17.5 -51.5z" />
<glyph unicode="&#x201d;" horiz-adv-x="868" d="M489 1457q0 35 23.5 58t57.5 23t57.5 -23t23.5 -58q0 -17 -7 -35l-104 -238q-11 -24 -36 -24h-7q-17 0 -24 10t0 26l80 182q-29 6 -46.5 27.5t-17.5 51.5zM217 1457q0 35 23.5 58t57.5 23t57.5 -23t23.5 -58q0 -17 -7 -35l-105 -238q-11 -24 -36 -24h-7q-17 0 -23.5 10 t0.5 26l80 182q-29 6 -46.5 27.5t-17.5 51.5z" />
<glyph unicode="&#x201e;" horiz-adv-x="868" d="M217 56q0 34 23.5 57.5t57.5 23.5t57.5 -23.5t23.5 -57.5q0 -16 -7 -34l-105 -239q-11 -24 -36 -24h-7q-17 0 -23.5 9.5t0.5 26.5l80 182q-29 6 -46.5 27.5t-17.5 51.5zM489 56q0 34 23.5 57.5t57.5 23.5t57.5 -23.5t23.5 -57.5q0 -16 -7 -34l-104 -239q-11 -24 -36 -24 h-7q-17 0 -24 10t0 26l80 182q-29 6 -46.5 27.5t-17.5 51.5z" />
<glyph unicode="&#x2022;" horiz-adv-x="819" d="M410 458q-95 0 -160 64t-65 158q0 93 65.5 157.5t159.5 64.5t159 -64.5t65 -157.5q0 -94 -64.5 -158t-159.5 -64z" />
<glyph unicode="&#x2026;" horiz-adv-x="1787" d="M217 56q0 34 23.5 57.5t57.5 23.5t57.5 -23.5t23.5 -57.5t-23.5 -57.5t-57.5 -23.5t-57.5 23.5t-23.5 57.5zM1409 56q0 34 23.5 57.5t57.5 23.5t57.5 -23.5t23.5 -57.5t-23.5 -57.5t-57.5 -23.5t-57.5 23.5t-23.5 57.5zM813 56q0 34 23.5 57.5t57.5 23.5t57.5 -23.5 t23.5 -57.5t-23.5 -57.5t-57.5 -23.5t-57.5 23.5t-23.5 57.5z" />
<glyph unicode="&#x202f;" horiz-adv-x="384" />
<glyph unicode="&#x2039;" horiz-adv-x="773" d="M110 640q0 23 20 37l478 311q16 10 26.5 5t10.5 -24v-22q0 -23 -20 -37l-421 -271l421 -271q20 -14 20 -37v-22q0 -19 -10.5 -24t-26.5 5l-478 311q-20 14 -20 37v2z" />
<glyph unicode="&#x203a;" horiz-adv-x="773" d="M664 638q0 -22 -21 -37l-478 -311q-17 -10 -27 -5t-10 24v22q0 23 20 37l421 271l-421 271q-20 14 -20 37v22q0 19 10 24t27 -5l478 -311q21 -15 21 -37v-2z" />
<glyph unicode="&#x205f;" horiz-adv-x="480" />
<glyph unicode="&#x20ac;" horiz-adv-x="1461" d="M907 59q219 0 399 139q25 21 43 -5l15 -23q18 -25 -5 -43q-197 -152 -452 -152q-265 0 -463.5 161.5t-252.5 414.5h-124q-31 0 -31 31v9q0 31 31 31h112q-5 52 -5 95q0 42 5 94h-112q-31 0 -31 31v9q0 31 31 31h124q54 253 252.5 414.5t463.5 161.5q242 0 433 -138 q24 -19 7 -43l-16 -22q-17 -24 -42 -7q-178 126 -382 126q-224 0 -394.5 -138t-223.5 -354h653q31 0 31 -31v-9q0 -31 -31 -31h-667q-6 -47 -6 -94q0 -49 6 -95h667q31 0 31 -31v-9q0 -31 -31 -31h-652q53 -216 223 -354t394 -138z" />
<glyph unicode="&#x2122;" horiz-adv-x="1546" d="M290 1366h-195q-30 0 -30 31v6q0 31 30 31h468q31 0 31 -31v-6q0 -31 -31 -31h-194v-659q0 -31 -31 -31h-17q-31 0 -31 31v659zM1059 923q-25 0 -37 19l-242 347v-582q0 -31 -30 -31h-18q-31 0 -31 31v696q0 31 31 31h17q23 0 36 -20l276 -399l275 399q13 20 37 20h17 q30 0 30 -31v-696q0 -31 -30 -31h-18q-31 0 -31 31v582l-241 -347q-12 -19 -37 -19h-4z" />
<glyph unicode="&#x25fc;" horiz-adv-x="1059" d="M0 1060h1060v-1060h-1060v1060z" />
</font>
</defs>
</svg>
